<?xml version="1.0" encoding="utf-8"?>
<!-- Generator: Adobe Illustrator 25.4.1, SVG Export Plug-In . SVG Version: 6.00 Build 0)  -->
<svg version="1.1" id="Vrstva_1" xmlns="http://www.w3.org/2000/svg" xmlns:xlink="http://www.w3.org/1999/xlink" x="0px" y="0px"
	 viewBox="0 0 510.2 510.2" style="enable-background:new 0 0 510.2 510.2;" xml:space="preserve">
<g>
	<path d="M255.1,7.7C118.7,7.7,7.7,118.7,7.7,255.1s111,247.4,247.4,247.4s247.4-111,247.4-247.4S391.6,7.7,255.1,7.7z
		 M255.1,450.9c-108.1,0-195.8-87.7-195.8-195.8S147,59.3,255.1,59.3S450.9,147,450.9,255.1S363.3,450.9,255.1,450.9z"/>
	<path d="M388.7,166.8c-10.1-10.1-26.4-10.1-36.5,0L198.5,320.4L158,279.9c-10.1-10.1-26.4-10.1-36.5,0
		s-10.1,26.4,0,36.5l58.8,58.8c4.8,4.8,11.4,7.6,18.2,7.6s13.5-2.7,18.2-7.6l171.9-171.9C398.9,193.2,398.9,176.8,388.7,166.8z"/>
</g>
</svg>
