<?xml version="1.0" encoding="utf-8"?>
<!-- Generator: Adobe Illustrator 25.4.1, SVG Export Plug-In . SVG Version: 6.00 Build 0)  -->
<svg version="1.1" id="Vrstva_1" xmlns="http://www.w3.org/2000/svg" xmlns:xlink="http://www.w3.org/1999/xlink" x="0px" y="0px"
	 viewBox="0 0 141.73 141.73" style="enable-background:new 0 0 141.73 141.73;" xml:space="preserve">
<g>
	<g>
		<path d="M53.42,105.46c0.48,0.03,0.94,0.07,1.74,0.09c0.02,0,0.31,0.01,0.59,0.01c0,0,3.93,0.02,4.4,0.35
			c0.16,0.11,0.29,0.25,0.29,0.25c0,0,0.06,0.06,0.11,0.13c1.16,1.49-0.49,4.29-0.64,4.54c-1.87,3.15-4.89,3.24-8,3.03
			c-2.64-0.18-4.46-1.62-5.4-4.01c-1.23-3.12-0.37-4.33,4.08-4.4C51.78,105.42,52.5,105.41,53.42,105.46z"/>
		<path d="M60.68,77.98c0,0.33,0,0.66,0,0.98c0.5-7.68,0.23-14.1-0.17-18.79c-0.8-9.46-1.57-15.93-5.41-23.26
			c-3.66-6.99-9.1-11.89-16.93-13.77c-8.63-2.08-14.32,0.96-16.86,9.28c-1.6,5.24-1.9,10.64-0.55,16.02
			c2.41,9.58,7.4,12.78,17.1,11.02c5.68-1.03,8.28,1.06,8.3,6.85c0.04,10.69,0.08,21.37-0.04,32.06c-0.02,1.27,0.13,2.14,0.66,2.63
			c0.47,0.45,1.09,0.46,2.38,0.49c2.1,0.05,3.53,0.03,4.29,0.03c0.48,0,2.16,0.01,4.42-0.04c1.12-0.02,1.76-0.04,2.24-0.5
			c0.48-0.46,0.64-1.25,0.61-2.42C60.59,91.7,60.68,84.84,60.68,77.98z M33.82,36.29c-0.14,1.7-0.03,3.41-0.03,5.12
			c0,1.58-0.04,3.16,0.01,4.73c0.06,2.01-0.87,3.39-2.81,3.57c-2.21,0.2-3.44-1.35-3.55-3.35c-0.19-3.41-0.12-6.83-0.03-10.25
			c0.06-2.1,1.42-3.64,3.38-3.6C32.77,32.56,34,33.99,33.82,36.29z"/>
	</g>
	<g>
		<path d="M88.31,105.46c-0.48,0.03-0.94,0.07-1.74,0.09c-0.02,0-0.31,0.01-0.59,0.01c0,0-3.93,0.02-4.4,0.35
			c-0.16,0.11-0.29,0.25-0.29,0.25c0,0-0.06,0.06-0.11,0.13c-1.16,1.49,0.49,4.29,0.64,4.54c1.87,3.15,4.89,3.24,8,3.03
			c2.64-0.18,4.46-1.62,5.4-4.01c1.23-3.12,0.37-4.33-4.08-4.4C89.95,105.42,89.24,105.41,88.31,105.46z"/>
		<path d="M81,98.56c-0.02,1.17,0.13,1.96,0.61,2.42c0.48,0.46,1.12,0.48,2.24,0.5c2.25,0.05,3.94,0.04,4.42,0.04
			c0.76,0,2.19,0.01,4.29-0.03c1.29-0.03,1.91-0.05,2.38-0.49c0.53-0.5,0.67-1.36,0.66-2.63c-0.13-10.69-0.08-21.37-0.04-32.06
			c0.02-5.78,2.62-7.88,8.3-6.85c9.7,1.76,14.69-1.44,17.1-11.02c1.35-5.39,1.05-10.79-0.55-16.02c-2.54-8.31-8.23-11.36-16.86-9.28
			c-7.83,1.89-13.26,6.78-16.93,13.77c-3.84,7.33-4.61,13.81-5.41,23.26c-0.4,4.69-0.67,11.12-0.17,18.79c0-0.33,0-0.66,0-0.98
			C81.05,84.84,81.14,91.7,81,98.56z M110.93,32.52c1.97-0.04,3.32,1.49,3.38,3.6c0.1,3.41,0.16,6.84-0.03,10.25
			c-0.11,2-1.34,3.55-3.55,3.35c-1.94-0.18-2.87-1.56-2.81-3.57c0.05-1.58,0.01-3.15,0.01-4.73c0-1.71,0.11-3.43-0.03-5.12
			C107.73,33.99,108.96,32.56,110.93,32.52z"/>
	</g>
</g>
</svg>
