<?xml version="1.0" encoding="utf-8"?>
<!-- Generator: Adobe Illustrator 25.4.1, SVG Export Plug-In . SVG Version: 6.00 Build 0)  -->
<svg version="1.1" id="Vrstva_1" xmlns="http://www.w3.org/2000/svg" xmlns:xlink="http://www.w3.org/1999/xlink" x="0px" y="0px"
	 viewBox="0 0 141.73 141.73" style="enable-background:new 0 0 141.73 141.73;" xml:space="preserve">
<g>
	<path d="M99.19,46.65c-0.22-2.07-0.39-3.28-1.14-4.69c-1.28-2.42-3.46-3.89-4.6-4.65c-2.39-1.58-2.87-1.05-3.85-2.24
		c-1.36-1.65-1.54-3.87-1.7-6.31c-0.07-1.13,0-2.29-0.19-3.4c-0.53-3.15-1.11-6.31-4.6-7.7c-8.52-0.02-17.04-0.04-25.56-0.06
		c-3.41,1.24-4.22,4.2-4.65,7.32c-0.35,2.49-0.5,5-0.79,7.49c-0.23,2-0.92,3.27-3.27,3.94c-5.67,1.61-8.87,6.36-8.88,12.33
		c-0.02,14.75,0,29.5-0.01,44.25c0,5.04,2.08,9.65,6.63,10.98c5.26,1.54,5.73,4.82,5.93,9.01c0.07,1.48,0.24,2.96,0.47,4.42
		c0.75,4.77,3.06,6.76,7.77,6.77c6.03,0.01,12.06,0,18.09,0c6.02,0,8.5-2.43,8.9-8.61c0.17-2.5,0.48-5,0.71-7.5
		c0.12-1.34,0.55-2.11,2.06-2.64c3.49-1.22,5.92-2.79,7.46-4.97c1.23-1.74,1.98-3.53,2.2-8.55c0.31-7.12-0.37-10.29-0.66-16.44
		c-0.18-3.69-0.01-8.82,0.32-19.06C99.86,56.35,99.94,53.85,99.19,46.65z M95.3,92.1c-0.02,5.19-3.28,8.65-8.4,8.69
		c-11.16,0.08-22.32,0.07-33.49,0c-5.2-0.03-8.53-3.35-8.55-8.59c-0.06-14.31-0.06-28.61,0-42.92c0.02-5.23,3.26-8.64,8.42-8.7
		c11.16-0.11,22.32-0.1,33.49-0.01c5.38,0.04,8.52,3.45,8.53,8.94c0.02,7.1,0.01,14.19,0.01,21.29
		C95.31,77.91,95.33,85.01,95.3,92.1z"/>
	<rect x="97.03" y="51.19" width="4.5" height="7.63"/>
	<polygon points="101.77,82.35 97.27,82.35 97.27,69.52 98.31,69.52 101.77,69.52 	"/>
	<polygon points="99.86,56.35 99.86,69.92 98.03,69.92 98.03,65.11 	"/>
	<polygon points="100.2,91.86 100.28,82.35 96.9,80.44 98.03,85.26 	"/>
</g>
</svg>
