<svg height="512" viewBox="0 0 128 128" width="512" xmlns="http://www.w3.org/2000/svg" xmlns:xlink="http://www.w3.org/1999/xlink"><linearGradient id="a" gradientUnits="userSpaceOnUse" x1="104.613" x2="30.848" y1="110.787" y2="37.022"><stop offset="0" stop-color="#ff595e"/><stop offset="1" stop-color="#ffca3a"/></linearGradient><path d="m49.676 103.684a1.75 1.75 0 0 1 -1.75 1.75h-1.586a1.75 1.75 0 0 1 0-3.5h1.586a1.749 1.749 0 0 1 1.75 1.75zm61.316-52.584v52.581a1.75 1.75 0 0 1 -1.75 1.75h-49.9a1.75 1.75 0 1 1 0-3.5h48.148v-44.856l-1.671-4.219h-77.079c-.008 0-.014 0-.022 0h-7.726v49.081h13.136a1.75 1.75 0 1 1 0 3.5h-14.886a1.75 1.75 0 0 1 -1.75-1.75v-52.587a1.749 1.749 0 0 1 1.75-1.75h9.174l67.35-26.66a1.747 1.747 0 0 1 2.271.983l2.008 5.075a1.75 1.75 0 1 1 -3.254 1.287l-1.364-3.447-57.5 22.765h12.429l33.23-13.153a1.75 1.75 0 0 1 2.272.986 6.544 6.544 0 0 0 8.491 3.673 1.751 1.751 0 0 1 2.268.983l2.98 7.512h4.837l-3.384-8.554a1.75 1.75 0 1 1 3.254-1.287l3.893 9.842h1.045a1.749 1.749 0 0 1 1.75 1.745zm-51.127-1.75h35.966l-1.88-4.739a10.072 10.072 0 0 1 -10.563-4.572zm33.083 48h-57.412a1.749 1.749 0 0 1 -1.75-1.75 6.55 6.55 0 0 0 -6.544-6.543 1.75 1.75 0 0 1 -1.75-1.75v-19.833a1.749 1.749 0 0 1 1.75-1.75 6.551 6.551 0 0 0 6.544-6.544 1.749 1.749 0 0 1 1.75-1.75h57.412a1.749 1.749 0 0 1 1.75 1.75 6.552 6.552 0 0 0 6.544 6.544 1.749 1.749 0 0 1 1.75 1.75v19.839a1.75 1.75 0 0 1 -1.75 1.75 6.551 6.551 0 0 0 -6.542 6.543 1.749 1.749 0 0 1 -1.752 1.75zm-1.6-3.5a10.07 10.07 0 0 1 8.141-8.141v-16.638a10.07 10.07 0 0 1 -8.141-8.141h-54.214a10.072 10.072 0 0 1 -8.142 8.141v16.644a10.072 10.072 0 0 1 8.142 8.141zm-14.857-16.456a12.25 12.25 0 1 1 -12.249-12.25 12.264 12.264 0 0 1 12.249 12.25zm-3.5 0a8.75 8.75 0 1 0 -8.749 8.749 8.759 8.759 0 0 0 8.749-8.749z" fill="url(#a)"/></svg>