<?xml version="1.0" encoding="utf-8"?>
<!-- Generator: Adobe Illustrator 25.4.1, SVG Export Plug-In . SVG Version: 6.00 Build 0)  -->
<svg version="1.1" id="Vrstva_1" xmlns="http://www.w3.org/2000/svg" xmlns:xlink="http://www.w3.org/1999/xlink" x="0px" y="0px"
	 viewBox="0 0 510.2 510.2" style="enable-background:new 0 0 510.2 510.2;" xml:space="preserve">
<path d="M252.3,254.2c7.4,0,13.4,6,13.4,13.4c0,7.4-6,13.4-13.4,13.4c-7.4,0-13.4-6-13.4-13.4
	C238.9,260.2,244.9,254.2,252.3,254.2L252.3,254.2z M250.4,97c-11.5,0-20.8,9.3-20.8,20.8v118.7h0c-9.6,7-15.8,18.3-15.8,31.1
	c0,21.2,17.2,38.5,38.5,38.5c2,0,3.9-0.1,5.8-0.4h0l51.3,51.3c4.1,4.1,9.4,6.1,14.7,6.1c5.3,0,10.6-2,14.7-6.1
	c8.1-8.1,8.1-21.2,0-29.3l-49.4-49.4h0c1-3.3,1.5-6.9,1.5-10.5c0-14.4-7.9-27-19.7-33.6V117.8C271.1,106.3,261.8,97,250.4,97
	L250.4,97z M250.4,0c-0.5,0-0.9,0-1.4,0l-21.7,1.4c-0.6,0-1.3,0.1-1.9,0.2L204,5.1c-0.6,0.1-1.3,0.2-1.9,0.4L181,11
	c-0.6,0.2-1.2,0.3-1.8,0.6l-20.5,7.3c-0.6,0.2-1.2,0.5-1.8,0.7l-19.7,9.2c-0.6,0.3-1.1,0.6-1.7,0.9l-18.8,11c-0.6,0.3-1.1,0.7-1.6,1
	L97.5,54.4c-0.5,0.4-1,0.8-1.5,1.2L79.6,69.9c-0.5,0.4-0.9,0.9-1.4,1.3l-15,15.7c-0.4,0.5-0.9,0.9-1.3,1.5l-13.5,17
	c-0.4,0.5-0.8,1-1.1,1.6l-11.9,18.2c-0.3,0.5-0.7,1.1-1,1.7l-10.1,19.2c-0.3,0.6-0.6,1.1-0.8,1.7L15.3,168c-0.2,0.6-0.5,1.2-0.7,1.8
	l-6.4,20.8c-0.2,0.6-0.3,1.2-0.5,1.9l-4.4,21.3c-0.1,0.6-0.2,1.3-0.3,1.9l-2.5,21.6c-0.1,0.6-0.1,1.3-0.1,1.9L0,260.8
	c0,0.6,0,1.3,0,1.9l1.6,21.7c0,0.6,0.1,1.3,0.2,1.9l3.6,21.4c0.1,0.6,0.2,1.3,0.4,1.9l5.5,21c0.2,0.6,0.4,1.2,0.6,1.8l7.5,20.4
	c0.2,0.6,0.5,1.2,0.7,1.8l9.3,19.6c0.3,0.6,0.6,1.1,0.9,1.7l11.1,18.7c0.3,0.6,0.7,1.1,1.1,1.6l12.8,17.6c0.4,0.5,0.8,1,1.2,1.5
	L71,431.7c0.4,0.5,0.9,0.9,1.3,1.4L88.1,448c0.4,0.4,0.9,0.8,1.4,1.2l14.9,11.8c0.4,0.3,0.9,0.7,1.4,1l15.8,10.6
	c0.5,0.3,0.9,0.6,1.4,0.9l16.6,9.2c0.5,0.3,1,0.5,1.5,0.8l17.3,7.9c0.5,0.2,1,0.4,1.6,0.6l17.9,6.4c0.5,0.2,1.1,0.4,1.6,0.5
	l18.4,4.9c0.5,0.1,1.1,0.3,1.6,0.4l18.7,3.4c0.6,0.1,1.1,0.2,1.7,0.2l18.9,1.9c0.6,0.1,1.1,0.1,1.7,0.1l19,0.4c0.1,0,0.3,0,0.4,0
	c0.4,0,0.9,0,1.3,0l19-1.2c0.6,0,1.1-0.1,1.7-0.2l18.8-2.7c0.6-0.1,1.1-0.2,1.7-0.3l18.6-4.2c0.5-0.1,1.1-0.3,1.6-0.4l18.2-5.7
	c0.5-0.2,1.1-0.4,1.6-0.6l17.6-7.2c0.5-0.2,1-0.4,1.5-0.7l17-8.6c0.5-0.3,1-0.5,1.5-0.8l16.2-9.9c0.5-0.3,0.9-0.6,1.4-0.9l15.4-11.2
	c0.5-0.3,0.9-0.7,1.3-1l14.4-12.4c0.4-0.4,0.8-0.8,1.2-1.2l13.4-13.6c0.4-0.4,0.8-0.8,1.1-1.2l12.2-14.6c0.4-0.4,0.7-0.9,1-1.3
	l11-15.6c6.6-9.4,4.4-22.3-5-28.9c-3.6-2.6-7.8-3.8-12-3.8c-6.5,0-12.9,3.1-17,8.8l-10.5,14.9l-11.1,13.3L401.1,411L388,422.4
	l-14,10.2l-14.8,9.1l-15.5,7.8l-16.1,6.5l-16.5,5.2l-16.9,3.9l-17.2,2.5l-17.3,1.1l-17.3-0.3l-17.3-1.7l-17.1-3.1l-16.8-4.5
	l-16.3-5.9l-15.8-7.2l-15.2-8.4l-14.4-9.6l-13.6-10.7l-14.5-13.6l-13.1-14.9l-11.7-16l-10.1-17l-8.5-17.9l-6.8-18.6L46.2,300
	L43,280.5l-1.4-19.8l0.4-19.8l2.2-19.7l4-19.4l5.8-18.9l7.6-18.3l9.2-17.5l10.8-16.6l12.3-15.5l13.7-14.3l14.9-13L138.6,76l17.1-10
	l17.9-8.4l18.6-6.7l19.2-4.9l19.6-3.1l19.8-1.3l19.8,0.5l19.7,2.4l19.4,4.2l18.9,5.9l18.3,7.7l17.5,9.3l16.5,10.9l15.5,12.4
	l11.3,10.9l-14.1-2.6c-1.3-0.2-2.6-0.4-3.8-0.4c-9.8,0-18.4,6.9-20.3,16.9c-2.1,11.2,5.3,22,16.5,24.1l66.5,12.4
	c1.3,0.2,2.5,0.4,3.8,0.4c4.7,0,9.3-1.6,13.1-4.6c4.7-3.8,7.5-9.6,7.6-15.6l1.3-65.8c0.2-11.4-8.9-20.9-20.3-21.1
	c-0.1,0-0.3,0-0.4,0c-11.2,0-20.5,9-20.7,20.3l-0.1,6.4l-12.2-11.8c-0.5-0.4-0.9-0.9-1.4-1.3l-17-13.6c-0.5-0.4-1-0.8-1.6-1.1
	l-18.1-12c-0.5-0.4-1.1-0.7-1.7-1l-19.2-10.2c-0.6-0.3-1.1-0.6-1.7-0.8l-20-8.4c-0.6-0.2-1.2-0.5-1.8-0.7l-20.7-6.5
	c-0.6-0.2-1.2-0.4-1.9-0.5l-21.3-4.6c-0.6-0.1-1.3-0.2-1.9-0.3l-21.6-2.6c-0.6-0.1-1.3-0.1-1.9-0.1L251,0C250.8,0,250.6,0,250.4,0
	L250.4,0z M250.4,0"/>
</svg>
