<svg id="Layer_1" enable-background="new 0 0 128 128" height="512" viewBox="0 0 128 128" width="512" xmlns="http://www.w3.org/2000/svg" xmlns:xlink="http://www.w3.org/1999/xlink"><linearGradient id="lg1"><stop offset="0" stop-color="#ff595e"/><stop offset="1" stop-color="#ffca3a"/></linearGradient><linearGradient id="SVGID_1_" gradientTransform="matrix(1 0 0 -1 0 127.89)" gradientUnits="userSpaceOnUse" x1="95.627" x2="92.183" xlink:href="#lg1" y1="41.419" y2="44.862"/><linearGradient id="SVGID_2_" gradientTransform="matrix(1 0 0 -1 0 127.89)" gradientUnits="userSpaceOnUse" x1="95.416" x2="23.202" xlink:href="#lg1" y1="27.111" y2="99.326"/><path d="m96.3 84.7c0 1.3-1.1 2.4-2.4 2.4s-2.4-1.1-2.4-2.4 1.1-2.4 2.4-2.4 2.4 1.1 2.4 2.4z" fill="url(#SVGID_1_)"/><path d="m49.8 44.2c-6.8 0-12.4 5.5-12.4 12.4 0 8.3 8.3 14.5 16.4 11.7 6.5-2.2 9.9-9.3 7.6-15.7-1.6-5.2-6.4-8.4-11.6-8.4zm0 21.2c-5 0-8.9-4.1-8.9-8.9 0-4.9 4-8.9 8.9-8.9 6.3 0 10.7 6.5 8.1 12.4-1.4 3.3-4.5 5.4-8.1 5.4zm5.5-12.7c.7.7.7 1.8 0 2.5l-5.3 5.2c-.7.7-1.8.7-2.5 0l-3.2-3.2c-.7-.7-.7-1.8 0-2.5s1.8-.7 2.5 0l1.9 1.9 4-4c.8-.6 1.9-.6 2.6.1zm-12 32c0 1.3-1.1 2.4-2.4 2.4s-2.4-1.1-2.4-2.4 1.1-2.4 2.4-2.4 2.4 1.1 2.4 2.4zm-5.6-49.5c0-1 .8-1.7 1.8-1.8h1.4c1 0 1.8.8 1.8 1.8s-.9 1.8-1.8 1.8h-1.4c-1 0-1.8-.8-1.8-1.8zm72.9 29.5c-17-34.6-8.6-17.6-11-22.5-.3-.6-.9-1-1.6-1h-17.4v-6c0-1-.8-1.7-1.8-1.8h-26.6c-1 0-1.8.8-1.8 1.8s.8 1.8 1.8 1.8h24.9v38h-56.3v-38h7.1c1 0 1.8-.8 1.8-1.8s-.8-1.8-1.8-1.8h-8.9c-1 0-1.7.8-1.8 1.8v49.5c0 1 .8 1.7 1.8 1.8h12.3c1 5.3 6 8.8 11.4 7.9 4-.7 7.2-3.9 7.9-7.9h33.8c1 5.3 6 8.8 11.4 7.9 4-.7 7.2-3.9 7.9-7.9h5.5c1 0 1.7-.8 1.8-1.8v-19.2c-.3-.3-.3-.5-.4-.8zm-13.7-19.9 9.3 19h-25.6v-19zm-48.5 33.6h28.7v4.6h-26.6c-.3-1.7-1-3.3-2.1-4.6zm-27.6 0h12.6c-1.1 1.3-1.8 2.9-2.1 4.5h-10.5zm20.1 12.6c-3.5 0-6.3-2.8-6.3-6.3s2.8-6.3 6.3-6.3 6.3 2.8 6.3 6.3-2.9 6.3-6.3 6.3zm53 0c-3.5 0-6.3-2.8-6.3-6.3s2.8-6.3 6.3-6.3 6.3 2.8 6.3 6.3-2.8 6.3-6.3 6.3zm9.6-8c-1-5.3-6.1-8.8-11.4-7.9-4 .7-7.1 3.9-7.9 7.9h-3.7v-15.8h26.7v15.8z" fill="url(#SVGID_2_)"/></svg>