<?xml version="1.0" encoding="utf-8"?>
<!-- Generator: Adobe Illustrator 26.0.1, SVG Export Plug-In . SVG Version: 6.00 Build 0)  -->
<svg version="1.1" id="Capa_1" xmlns="http://www.w3.org/2000/svg" xmlns:xlink="http://www.w3.org/1999/xlink" x="0px" y="0px"
	 viewBox="0 0 512 512" style="enable-background:new 0 0 512 512;" xml:space="preserve">
<g>
	<g>
		<path d="M501.2,176.5c-0.7-2.3-1.7-4.5-3.3-6.5c-1.1-1.5-2.4-2.8-3.9-3.9c-3.8-4.8-8.3-9.1-13.2-12.9l-181-139.9
			c-0.5-0.4-1.1-0.8-1.7-1.2C272.2-4,239.8-4,213.8,12.1c-0.6,0.4-1.1,0.7-1.7,1.2l-181,139.9C11.7,168.3,0,191.9,0,216.5V432
			c0,44.1,35.9,80,80,80h213c11,0,20-9,20-20s-9-20-20-20H80c-22.1,0-40-17.9-40-40V216.5c0-12.3,5.8-24.1,15.5-31.6L235.7,45.6
			c12.6-7.5,28-7.5,40.7,0l174.5,134.9L276.4,312.5c-12.7,7.5-28.2,7.5-40.9,0L117,223.7c-8.8-6.6-21.4-4.8-28,4
			c-6.6,8.8-4.8,21.4,4,28L212.3,345c0.5,0.3,0.9,0.7,1.4,1c13,8.1,27.6,12.1,42.2,12.1c14.6,0,29.2-4,42.2-12.1
			c0.5-0.3,1-0.7,1.5-1l172.2-130.3c0,0.6,0,1.2,0,1.8V261c0,11,9,20,20,20s20-9,20-20v-44.5C512,202.4,508.1,188.6,501.2,176.5z"/>
	</g>
</g>
</svg>
