<?xml version="1.0" encoding="utf-8"?>
<!-- Generator: Adobe Illustrator 25.4.1, SVG Export Plug-In . SVG Version: 6.00 Build 0)  -->
<svg version="1.1" id="Vrstva_1" xmlns="http://www.w3.org/2000/svg" xmlns:xlink="http://www.w3.org/1999/xlink" x="0px" y="0px"
	 viewBox="0 0 1133.9 1133.9" style="enable-background:new 0 0 1133.9 1133.9;" xml:space="preserve">
<style type="text/css">
	.st0{fill:#CFB181;}
	.st1{fill:#DDC088;}
	.st2{fill:#F2F2F2;}
	.st3{fill:#E7E6E6;}
</style>
<path class="st0" d="M1024.4,441.6v474.2c0,39.5-32,71.5-71.5,71.5h-772c-39.5,0-71.5-32-71.5-71.5V441.6c0-39.5,32-71.5,71.5-71.5
	h772C992.4,370.1,1024.4,402.1,1024.4,441.6z"/>
<g>
	<g>
		<path class="st1" d="M1011.4,379l-383-217.4c-18.9-9.8-40.1-15.1-61.5-15.1s-42.6,5.2-61.5,15.1L122.4,379c-8,4.6-13,13.1-13,22.3
			v88.6l396,224.7c18.9,9.8,40.1,15.1,61.5,15.1s42.6-5.2,61.5-15.1l396.1-224.7v-88.6C1024.4,392.1,1019.5,383.6,1011.4,379z"/>
	</g>
</g>
<g>
	<g>
		<path class="st2" d="M908.3,251.3H225.6c-15,0-27.2,12.2-27.2,27.2v261.9l368.6,210.1l368.6-210.1V278.5
			C935.5,263.5,923.3,251.3,908.3,251.3z"/>
	</g>
</g>
<g>
	<g>
		<path class="st1" d="M180.9,987.3h772c39.5,0,71.5-32,71.5-71.5v-17.2L615.7,648.8c-30.5-15.9-66.9-15.9-97.4,0L109.4,898.6v17.2
			C109.4,955.3,141.4,987.3,180.9,987.3z"/>
	</g>
</g>
<g>
	<g>
		<path class="st3" d="M844.4,350.9h-566c-12.3,0-22.3-10-22.3-22.3c0-12.3,10-22.3,22.3-22.3h566c12.3,0,22.3,10,22.3,22.3
			C866.7,340.9,856.7,350.9,844.4,350.9z"/>
	</g>
	<g>
		<path class="st3" d="M844.4,442.7h-566c-12.3,0-22.3-10-22.3-22.3c0-12.3,10-22.3,22.3-22.3h566c12.3,0,22.3,10,22.3,22.3
			C866.7,432.8,856.7,442.7,844.4,442.7z"/>
	</g>
	<g>
		<path class="st3" d="M844.4,534.6h-566c-12.3,0-22.3-10-22.3-22.3c0-12.3,10-22.3,22.3-22.3h566c12.3,0,22.3,10,22.3,22.3
			C866.7,524.6,856.7,534.6,844.4,534.6z"/>
	</g>
	<g>
		<path class="st3" d="M853.3,585.5l-71.9,41H346.3l-76.8-43.8c1.8-0.6,3.8-0.8,5.8-0.8h566.1C845.7,581.9,849.8,583.2,853.3,585.5z
			"/>
	</g>
</g>
</svg>
