<?xml version="1.0" encoding="utf-8"?>
<!-- Generator: Adobe Illustrator 25.4.1, SVG Export Plug-In . SVG Version: 6.00 Build 0)  -->
<svg version="1.1" id="Vrstva_1" xmlns="http://www.w3.org/2000/svg" xmlns:xlink="http://www.w3.org/1999/xlink" x="0px" y="0px"
	 viewBox="0 0 566.9 566.9" style="enable-background:new 0 0 566.9 566.9;" xml:space="preserve">
<g>
	<path d="M564.6,179.8C564.6,179.8,564.6,179.8,564.6,179.8c0-0.1,0-0.1,0-0.2c0-0.2,0-0.3,0-0.5c0-0.1,0-0.2,0-0.2
		c0-0.1-0.1-0.3-0.1-0.4c0-0.1,0-0.2-0.1-0.2c0-0.1-0.1-0.3-0.2-0.4c0-0.1-0.1-0.1-0.1-0.2c-0.1-0.1-0.2-0.3-0.2-0.4
		c0-0.1-0.1-0.1-0.1-0.2c-0.1-0.2-0.3-0.4-0.4-0.5c0,0,0,0-0.1-0.1c-0.1-0.1-0.3-0.3-0.4-0.4c-0.1-0.1-0.1-0.1-0.2-0.1
		c-0.1-0.1-0.2-0.1-0.2-0.2c0,0-0.1,0-0.1-0.1c-0.1,0-0.2-0.1-0.2-0.1c-0.1-0.1-0.2-0.1-0.4-0.2c0,0-0.1,0-0.1-0.1l-70-27.9
		c0,0,0,0,0,0l-37.8-15c0,0,0,0,0,0l-42.4-16.9c-1.2-0.5-2.5-0.5-3.6,0l-10.8,4.3l-139.3,55.5c0,0-0.1,0-0.1,0.1
		c-0.1,0.1-0.2,0.1-0.4,0.2c-0.1,0-0.2,0.1-0.2,0.1c0,0-0.1,0-0.1,0.1c-0.1,0.1-0.2,0.1-0.2,0.2c-0.1,0-0.1,0.1-0.2,0.1
		c-0.1,0.1-0.3,0.2-0.4,0.4c0,0,0,0-0.1,0.1c-0.2,0.2-0.3,0.3-0.4,0.5c0,0.1-0.1,0.1-0.1,0.2c-0.1,0.1-0.2,0.3-0.2,0.4
		c0,0.1-0.1,0.1-0.1,0.2c-0.1,0.1-0.1,0.3-0.2,0.4c0,0.1-0.1,0.2-0.1,0.2c0,0.1-0.1,0.3-0.1,0.4c0,0.1,0,0.2,0,0.2
		c0,0.2,0,0.3,0,0.5c0,0.1,0,0.1,0,0.2c0,0,0,0,0,0c0,0,0,0,0,0.1v86.4v81.3c0,1.9,1.1,3.6,2.9,4.4l150.2,67.7c0,0,0,0,0,0
		c0.3,0.1,0.6,0.2,0.9,0.3c0.1,0,0.2,0,0.2,0c0.3,0.1,0.6,0.1,0.9,0.1c0.3,0,0.6,0,0.9-0.1c0.1,0,0.2,0,0.2,0
		c0.3-0.1,0.6-0.2,0.9-0.3c0,0,0,0,0,0L561.7,352c1.7-0.8,2.9-2.5,2.9-4.4L564.6,179.8C564.6,179.9,564.6,179.9,564.6,179.8z
		 M264.2,187.4l39.1,17.3v66.1c0,1.7,0.9,3.3,2.5,4.2l33.2,18.8c0.8,0.4,1.6,0.6,2.4,0.6c0.8,0,1.6-0.2,2.4-0.6
		c1.5-0.8,2.4-2.4,2.5-4.1l2.5-64.9l55.9,24.7v158.2l-140.4-63.3V187.4z M477.6,152.4L348,213.8l-27.8-12.3l131.9-59.2L477.6,152.4z
		 M336.8,281.4L313.2,268V209l26,11.5c0,0.1,0,0.3,0,0.4L336.8,281.4z M296.2,196.2L296.2,196.2L296.2,196.2z M409.5,241.1
		l-49.2-21.8v0l-0.5-0.2l130.1-61.7l57.3,22.8L409.5,241.1z M439.5,137.3l-131.3,59l-10-4.4v0l-26.3-11.7l137.6-54.8L439.5,137.3z
		 M414.4,407.7V249.5l140.4-62.1v157.1L414.4,407.7z"/>
	<line x1="296.7" y1="201.2" x2="296.7" y2="201.2"/>
	<g>
		<path d="M156.1,183.6h59.4c3.1,0,5.5-2.5,5.5-5.5c0-3.1-2.5-5.5-5.5-5.5h-59.4c-3.1,0-5.5,2.5-5.5,5.5
			C150.5,181.1,153,183.6,156.1,183.6z"/>
		<path d="M204.4,257.6H145c-3.1,0-5.5,2.5-5.5,5.5s2.5,5.5,5.5,5.5h59.4c3.1,0,5.5-2.5,5.5-5.5
			S207.4,257.6,204.4,257.6z"/>
		<path d="M215.6,346.8c0-3.1-2.5-5.5-5.5-5.5h-59.4c-3.1,0-5.5,2.5-5.5,5.5c0,3.1,2.5,5.5,5.5,5.5H210
			C213.1,352.3,215.6,349.8,215.6,346.8z"/>
		<path d="M104.9,183.6h19.3c3.1,0,5.5-2.5,5.5-5.5c0-3.1-2.5-5.5-5.5-5.5h-19.3c-3.1,0-5.5,2.5-5.5,5.5
			C99.3,181.1,101.8,183.6,104.9,183.6z"/>
		<path d="M41.2,222.2h166.7c3.1,0,5.5-2.5,5.5-5.5c0-3.1-2.5-5.5-5.5-5.5H41.2c-3.1,0-5.5,2.5-5.5,5.5
			C35.6,219.7,38.1,222.2,41.2,222.2z"/>
		<path d="M7.7,307h194c3.1,0,5.5-2.5,5.5-5.5c0-3.1-2.5-5.5-5.5-5.5H7.7c-3.1,0-5.5,2.5-5.5,5.5
			C2.1,304.6,4.6,307,7.7,307z"/>
	</g>
</g>
</svg>
