<?xml version="1.0" encoding="utf-8"?>
<!-- Generator: Adobe Illustrator 25.4.1, SVG Export Plug-In . SVG Version: 6.00 Build 0)  -->
<svg version="1.1" id="Vrstva_1" xmlns="http://www.w3.org/2000/svg" xmlns:xlink="http://www.w3.org/1999/xlink" x="0px" y="0px"
	 viewBox="0 0 510.2 510.2" style="enable-background:new 0 0 510.2 510.2;" xml:space="preserve">
<path stroke-width="4" d="M504.5,113.7L504.5,113.7c0-0.2,0-0.2,0-0.3c0-0.3,0-0.5,0-0.8c0-0.2,0-0.3,0-0.3c0-0.2-0.2-0.5-0.2-0.6
	c0-0.2,0-0.3-0.2-0.3c0-0.2-0.2-0.5-0.3-0.6c0-0.2-0.2-0.2-0.2-0.3c-0.2-0.2-0.3-0.5-0.3-0.6c0-0.2-0.2-0.2-0.2-0.3
	c-0.2-0.3-0.5-0.6-0.6-0.8c0,0,0,0-0.2-0.2s-0.5-0.5-0.6-0.6c-0.2-0.2-0.2-0.2-0.3-0.2c-0.2-0.2-0.3-0.2-0.3-0.3c0,0-0.2,0-0.2-0.2
	c-0.2,0-0.3-0.2-0.3-0.2c-0.2-0.2-0.3-0.2-0.6-0.3c0,0-0.2,0-0.2-0.2L387.1,61.5l0,0l-60.9-24.2l0,0L258,10.2c-1.9-0.8-4-0.8-5.8,0
	l-17.4,6.9L10.5,106.5c0,0-0.2,0-0.2,0.2c-0.2,0.2-0.3,0.2-0.6,0.3c-0.2,0-0.3,0.2-0.3,0.2s-0.2,0-0.2,0.2c-0.2,0.2-0.3,0.2-0.3,0.3
	c-0.2,0-0.2,0.2-0.3,0.2c-0.2,0.2-0.5,0.3-0.6,0.6c0,0,0,0-0.2,0.2c-0.3,0.3-0.5,0.5-0.6,0.8c0,0.2-0.2,0.2-0.2,0.3
	c-0.2,0.2-0.3,0.5-0.3,0.6c0,0.2-0.2,0.2-0.2,0.3c-0.2,0.2-0.2,0.5-0.3,0.6c0,0.2-0.2,0.3-0.2,0.3c0,0.2-0.2,0.5-0.2,0.6
	c0,0.2,0,0.3,0,0.3c0,0.3,0,0.5,0,0.8c0,0.2,0,0.2,0,0.3l0,0c0,0,0,0,0,0.2v139.1v130.9c0,3.1,1.8,5.8,4.7,7.1l241.9,109l0,0
	c0.5,0.2,1,0.3,1.4,0.5c0.2,0,0.3,0,0.3,0c0.5,0.2,1,0.2,1.4,0.2c0.5,0,1,0,1.4-0.2c0.2,0,0.3,0,0.3,0c0.5-0.2,1-0.3,1.4-0.5l0,0
	l241.1-109c2.7-1.3,4.7-4,4.7-7.1L504.5,113.7C504.5,113.9,504.5,113.9,504.5,113.7z M20.8,126l63,27.9v106.4c0,2.7,1.4,5.3,4,6.8
	l53.5,30.3c1.3,0.6,2.6,1,3.9,1s2.6-0.3,3.9-1c2.4-1.3,3.9-3.9,4-6.6l4-104.5l90,39.8v254.8L20.9,378.8V126H20.8z M364.4,69.6
	l-208.7,98.9l-44.8-19.8l212.4-95.3L364.4,69.6z M137.7,277.3l-38-21.6v-95l41.9,18.5c0,0.2,0,0.5,0,0.6L137.7,277.3z M72.3,140.1
	L72.3,140.1L72.3,140.1z M254.8,212.4l-79.2-35.1l0,0l-0.8-0.3l209.5-99.4l92.3,36.7L254.8,212.4z M303.1,45.3l-211.5,95l-16.1-7.1
	l0,0l-42.3-18.8l221.6-88.3L303.1,45.3z M262.7,480.7V226l226.1-100v253L262.7,480.7z"/>
</svg>
