<?xml version="1.0" encoding="utf-8"?>
<!-- Generator: Adobe Illustrator 25.4.1, SVG Export Plug-In . SVG Version: 6.00 Build 0)  -->
<svg version="1.1" id="Vrstva_1" xmlns="http://www.w3.org/2000/svg" xmlns:xlink="http://www.w3.org/1999/xlink" x="0px" y="0px"
	 viewBox="0 0 141.73 141.73" style="enable-background:new 0 0 141.73 141.73;" xml:space="preserve">
<g>
	<g>
		<path d="M62.34,61.02c0-1.39,0.45-2.8,1.34-4.23c0.89-1.43,2.2-2.61,3.91-3.55c1.71-0.94,3.71-1.4,5.99-1.4
			c2.12,0,4,0.39,5.62,1.17c1.62,0.78,2.88,1.85,3.76,3.19c0.89,1.35,1.33,2.81,1.33,4.39c0,1.24-0.25,2.33-0.76,3.27
			c-0.5,0.94-1.11,1.75-1.8,2.43c-0.7,0.68-1.94,1.83-3.74,3.44c-0.5,0.45-0.9,0.85-1.2,1.2c-0.3,0.34-0.52,0.66-0.67,0.94
			c-0.15,0.29-0.26,0.57-0.34,0.86c-0.08,0.29-0.2,0.79-0.36,1.5c-0.28,1.52-1.15,2.28-2.61,2.28c-0.76,0-1.4-0.25-1.92-0.75
			c-0.52-0.5-0.78-1.24-0.78-2.22c0-1.23,0.19-2.29,0.57-3.19c0.38-0.9,0.89-1.69,1.51-2.37c0.63-0.68,1.48-1.49,2.55-2.43
			c0.94-0.82,1.61-1.44,2.03-1.85c0.42-0.42,0.77-0.88,1.05-1.39c0.29-0.51,0.43-1.07,0.43-1.67c0-1.17-0.44-2.16-1.31-2.96
			c-0.87-0.8-1.99-1.21-3.37-1.21c-1.61,0-2.8,0.41-3.56,1.22c-0.76,0.81-1.4,2.01-1.93,3.59c-0.5,1.65-1.44,2.48-2.83,2.48
			c-0.82,0-1.51-0.29-2.07-0.87C62.62,62.32,62.34,61.69,62.34,61.02z M73.05,85.08c-0.89,0-1.67-0.29-2.34-0.87
			c-0.67-0.58-1-1.39-1-2.43c0-0.92,0.32-1.7,0.97-2.33c0.64-0.63,1.43-0.94,2.37-0.94c0.92,0,1.7,0.31,2.33,0.94
			c0.63,0.63,0.94,1.4,0.94,2.33c0,1.02-0.33,1.83-0.99,2.41C74.68,84.79,73.92,85.08,73.05,85.08z"/>
	</g>
	<path d="M107.76,40.09c-9.15-7.94-21.3-12.31-34.21-12.31S48.5,32.15,39.34,40.09C30.1,48.11,25,58.8,25,70.2
		c0,9.33,3.57,18.49,10.06,25.86l-9.78,18.12c-0.46,0.85-0.34,1.92,0.31,2.64c0.44,0.49,1.07,0.77,1.72,0.77
		c0.3,0,0.59-0.06,0.86-0.17l23.34-9.41c6.78,3.02,14.39,4.61,22.04,4.61c12.91,0,25.06-4.37,34.21-12.31
		c9.25-8.02,14.34-18.72,14.34-30.11S117.01,48.11,107.76,40.09z M39.91,96.81c0.48-0.88,0.33-1.96-0.36-2.69
		c-6.4-6.73-9.92-15.22-9.92-23.92c0-20.84,19.7-37.8,43.92-37.8c24.22,0,43.92,16.96,43.92,37.8S97.77,108,73.55,108
		c-7.34,0-14.61-1.59-21.01-4.6c-0.65-0.3-1.37-0.29-2.01,0.02l-18.14,7.32L39.91,96.81z"/>
</g>
</svg>
