<?xml version="1.0" encoding="utf-8"?>
<!-- Generator: Adobe Illustrator 25.4.1, SVG Export Plug-In . SVG Version: 6.00 Build 0)  -->
<svg version="1.1" id="Vrstva_1" xmlns="http://www.w3.org/2000/svg" xmlns:xlink="http://www.w3.org/1999/xlink" x="0px" y="0px"
	 viewBox="0 0 510.2 510.2" style="enable-background:new 0 0 510.2 510.2;" xml:space="preserve">
<g>
	<path d="M381.7,487.8V283h56.1v204.8H381.7z M157.3,273.7v-121H363v121v214.1h-18.7v-46.5c0-5.1-4.2-9.3-9.3-9.3
		c-5.2,0-9.3,4.2-9.3,9.3v46.5h-18.7v-46.5c0-5.1-4.2-9.3-9.3-9.3c-5.2,0-9.3,4.2-9.3,9.3v46.5h-18.7v-46.5c0-5.1-4.2-9.3-9.3-9.3
		c-5.2,0-9.3,4.2-9.3,9.3v46.5h-18.7v-46.5c0-5.1-4.2-9.3-9.3-9.3c-5.2,0-9.3,4.2-9.3,9.3v46.5h-18.7v-46.5c0-5.1-4.2-9.3-9.3-9.3
		c-5.2,0-9.3,4.2-9.3,9.3v46.5h-18.7V273.7z M82.6,283h56.1v204.8H82.6V283z M213.4,96.9h93.5v37.2h-93.5V96.9z M465.8,487.8h-9.3
		V273.7c0-5.1-4.2-9.3-9.3-9.3h-65.4v-121c0-5.1-4.2-9.3-9.3-9.3h-46.7V87.6c0-5.1-4.2-9.3-9.3-9.3h-46.7V13.1
		c0-5.1-4.2-9.3-9.3-9.3c-5.2,0-9.3,4.2-9.3,9.3v65.2h-46.7c-5.2,0-9.3,4.2-9.3,9.3v46.5H148c-5.2,0-9.3,4.2-9.3,9.3v121H73.2
		c-5.2,0-9.3,4.2-9.3,9.3v214.1h-9.3c-5.2,0-9.3,4.2-9.3,9.3s4.2,9.3,9.3,9.3h411.2c5.2,0,9.3-4.2,9.3-9.3S470.9,487.8,465.8,487.8z
		"/>
	<path d="M110.6,301.7c-5.2,0-9.3,4.2-9.3,9.3v148.9c0,5.1,4.2,9.3,9.3,9.3c5.2,0,9.3-4.2,9.3-9.3V311
		C120,305.8,115.8,301.7,110.6,301.7z"/>
	<path d="M409.7,301.7c-5.2,0-9.3,4.2-9.3,9.3v148.9c0,5.1,4.2,9.3,9.3,9.3c5.2,0,9.3-4.2,9.3-9.3V311
		C419,305.8,414.9,301.7,409.7,301.7z"/>
	<path d="M185.4,190h149.5c5.2,0,9.3-4.2,9.3-9.3c0-5.1-4.2-9.3-9.3-9.3H185.4c-5.2,0-9.3,4.2-9.3,9.3
		C176,185.8,180.2,190,185.4,190z"/>
	<path d="M185.4,227.2h149.5c5.2,0,9.3-4.2,9.3-9.3s-4.2-9.3-9.3-9.3H185.4c-5.2,0-9.3,4.2-9.3,9.3
		S180.2,227.2,185.4,227.2z"/>
	<path d="M185.4,264.4h149.5c5.2,0,9.3-4.2,9.3-9.3c0-5.1-4.2-9.3-9.3-9.3H185.4c-5.2,0-9.3,4.2-9.3,9.3
		C176,260.3,180.2,264.4,185.4,264.4z"/>
	<path d="M185.4,301.7h149.5c5.2,0,9.3-4.2,9.3-9.3c0-5.1-4.2-9.3-9.3-9.3H185.4c-5.2,0-9.3,4.2-9.3,9.3
		C176,297.5,180.2,301.7,185.4,301.7z"/>
	<path d="M185.4,338.9h149.5c5.2,0,9.3-4.2,9.3-9.3c0-5.1-4.2-9.3-9.3-9.3H185.4c-5.2,0-9.3,4.2-9.3,9.3
		C176,334.7,180.2,338.9,185.4,338.9z"/>
	<path d="M185.4,376.1h149.5c5.2,0,9.3-4.2,9.3-9.3c0-5.1-4.2-9.3-9.3-9.3H185.4c-5.2,0-9.3,4.2-9.3,9.3
		C176,372,180.2,376.1,185.4,376.1z"/>
	<path d="M185.4,413.4h149.5c5.2,0,9.3-4.2,9.3-9.3c0-5.1-4.2-9.3-9.3-9.3H185.4c-5.2,0-9.3,4.2-9.3,9.3
		C176,409.2,180.2,413.4,185.4,413.4z"/>
	<rect x="-38.9" y="-45.2" fill="none" width="598.2" height="600.6"/>
</g>
</svg>
