<?xml version="1.0" encoding="utf-8"?>
<!-- Generator: Adobe Illustrator 25.4.1, SVG Export Plug-In . SVG Version: 6.00 Build 0)  -->
<svg version="1.1" id="Vrstva_1" xmlns="http://www.w3.org/2000/svg" xmlns:xlink="http://www.w3.org/1999/xlink" x="0px" y="0px"
	 viewBox="0 0 510.2 510.2" style="enable-background:new 0 0 510.2 510.2;" xml:space="preserve">
<g>
	<path d="M72.5,361c-3.8,2.1-5.3,6.8-3.3,10.7c2.1,3.8,6.8,5.3,10.6,3.3c3.4-1.8,22-5.6,40.1-8.5
		c15.4-2.5,29.7-4.3,32.4-3.5l72.1,21.2c37.3,15.4,68.6-3.8,73.4-7l187.3-98.8l-3.7-7l3.7,7c0.4-0.2,0.6-0.4,0.9-0.5
		c24.3-14.2,26.7-24.9,15.2-33.7c-7.3-5.6-23.3-8.4-43-10.6l0,0c-0.4-0.1-0.9-0.1-1.3,0c-15-0.1-47.1,15.8-75.3,29.7
		c-19.3,9.5-36.6,18.1-43.4,19.3l-23,4.4c-3.3,0.6-4.4-0.5-6.2-2.5c-2.4-2.7-5.4-6.1-11-9.6c-19.4-12.7-41.6-11.5-62.6-10.4
		c-1.5,0.1-3,0.2-4.5,0.2c-5.5,0.3-11.3,0.4-17.5,0.4c-5.9,0-11.6-0.2-17.2-0.5c-8.1-0.6-15.8-5.9-23.6-11.4
		c-2.1-1.4-4.1-2.9-5.8-3.9c-33.7-22.2-47.6-14.9-71.9-2c-6.4,3.4-13.6,7.2-21.8,10.7c-4,1.7-5.9,6.3-4.2,10.3
		c1.7,4,6.3,5.9,10.3,4.2c9.3-3.9,16.6-7.8,23.1-11.2c19-10.1,30-15.9,55.8,1.2c2.1,1.4,3.8,2.6,5.5,3.7
		c9.6,6.7,19.1,13.2,31.5,14.2c6.2,0.4,12.2,0.6,18.3,0.6c5.7,0,11.9-0.2,18.2-0.4c1.5-0.1,3-0.2,4.5-0.3c18.5-1,38.1-2,53.3,7.9
		c3.7,2.4,6,4.9,7.8,7c5.4,6,8.7,9.7,20.7,7.4l23-4.4c8.9-1.7,27.3-10.7,47.5-20.7c26.8-13.3,57.3-28.3,68.2-28.1
		c17.1,2,30.6,4,34.9,7.3c0,0-3.7,2.1-13.5,7.8c-0.1,0.1-0.3,0.1-0.4,0.2l0,0L290.7,363c-0.4,0.2-0.9,0.4-1.3,0.8l0,0
		c-0.3,0.2-26.6,19.1-58.8,5.8c-0.4-0.2-0.8-0.4-1.2-0.4l-2.2,7.6l2.2-7.6l-72.6-21.3c-5-1.5-21.9,0.3-39.2,3
		C98.1,354,77.2,358.5,72.5,361z"/>
	<path d="M317.4,295.3c-0.2-4.4-3.9-7.7-8.3-7.5c-4.4,0.2-7.7,3.9-7.5,8.3c1.2,22-14.6,29.5-34,30.6
		c-22.6,1.2-49.8-5.3-65.8-9.5c-4.2-1.2-8.6,1.3-9.6,5.6c-1.2,4.2,1.3,8.6,5.6,9.6c16.8,4.5,45.8,11.5,70.7,10.1
		C296.5,340.9,319.3,329.5,317.4,295.3z"/>
	<path d="M84.1,236.1v150.2c0,4.4-3.6,7.8-7.8,7.8h-66c-4.4,0-7.8-3.6-7.8-7.8V236.1c0-4.4,3.6-7.8,7.8-7.8h65.9
		C80.5,228.2,84.1,231.8,84.1,236.1L84.1,236.1z M68.3,378.4V244H18.2v134.4L68.3,378.4L68.3,378.4z"/>
	<path stroke-width="4" d="M377.7,116l-203.6,16.6c-2.3,0.2-4,2.2-3.8,4.5l7.1,87.3l0.3,4.1c0.2,2,1.8,3.6,3.8,3.8l189.7,18
		c0.3,0,0.5,0,0.7,0c1-0.1,1.9-0.5,2.6-1.2c0.9-0.9,1.3-2.1,1.2-3.3l-1.2-14.5l4.2-0.3c2.3-0.2,4-2.2,3.8-4.5l-1.2-14.6l4.2-0.3
		c2.3-0.2,4-2.2,3.8-4.5l-7.1-87.3C382,117.6,380,115.9,377.7,116z M339.7,207l-127.6,10.4c-3-13.7-14.9-23.8-28.9-24.6l-2.1-25.5
		c13.7-3,23.8-14.9,24.6-28.9L333.2,128c4.9,14.4,27.9,22.9,43.2,23.4l2.1,25.4C363.5,179.9,342.1,192.1,339.7,207z M183.9,201.3
		c9.4,0.9,17.3,7.7,19.8,16.8l-18.3,1.5L183.9,201.3z M375.8,143.1c-12.1-0.6-28.9-7.2-33.8-15.7l32.3-2.6L375.8,143.1z
		 M197.3,139.1c-0.9,9.4-7.7,17.3-16.8,19.8l-1.5-18.3L197.3,139.1L197.3,139.1z M367.1,241.6l-129.7-12.3l128.9,2.3L367.1,241.6z
		 M373.9,223l-3.9,0.3l-104.7-1.9l107.9-8.8L373.9,223z M348.4,206.3c3.3-9.2,18.9-18.4,30.8-21l1.5,18.4L348.4,206.3z"/>
</g>
</svg>
