<?xml version="1.0" encoding="utf-8"?>
<!-- Generator: Adobe Illustrator 25.4.1, SVG Export Plug-In . SVG Version: 6.00 Build 0)  -->
<svg version="1.1" id="Vrstva_1" xmlns="http://www.w3.org/2000/svg" xmlns:xlink="http://www.w3.org/1999/xlink" x="0px" y="0px"
	 viewBox="0 0 141.7 141.7" style="enable-background:new 0 0 141.7 141.7;" xml:space="preserve">
<path d="M97.5,28.1H40.2c-2.3,0-4.2,1.9-4.2,4.2v80.6c0,2.3,1.9,4.2,4.2,4.2h57.3c2.3,0,4.2-1.9,4.2-4.2h0V32.3
	C101.8,30,99.9,28.1,97.5,28.1z M68.2,30.1c0.5,0,0.8,0.4,0.8,0.8s-0.4,0.8-0.8,0.8s-0.8-0.4-0.8-0.8S67.8,30.1,68.2,30.1z
	 M68.2,116c-0.9,0-1.6-0.7-1.6-1.6c0-0.9,0.7-1.6,1.6-1.6c0.9,0,1.6,0.7,1.6,1.6C69.8,115.2,69,116,68.2,116z M96.2,111.7H41.6v-78
	h54.6V111.7z"/>
</svg>
