<?xml version="1.0" encoding="utf-8"?>
<!-- Generator: Adobe Illustrator 25.4.1, SVG Export Plug-In . SVG Version: 6.00 Build 0)  -->
<svg version="1.1" id="OBJECTS" xmlns="http://www.w3.org/2000/svg" xmlns:xlink="http://www.w3.org/1999/xlink" x="0px" y="0px"
	 viewBox="0 0 4048.3 4048.3" style="enable-background:new 0 0 4048.3 4048.3;" xml:space="preserve">
<path stroke-width="61" class="st0" d="M2670.3,55.2H1378c-161.1,0-292.8,131.8-292.8,292.8v3352.2c0,161.1,131.8,292.8,292.8,292.8h1292.3
	c161.1,0,292.8-131.8,292.8-292.8V348.1C2963.1,187,2831.4,55.2,2670.3,55.2z M2906.8,3700.9c0,125.8-102.9,228.7-228.7,228.7h-1308
	c-125.8,0-228.7-102.9-228.7-228.7V347.3c0-125.8,102.9-228.7,228.7-228.7h324.6v50.6c0,46.4,38,84.4,84.4,84.4H2275
	c46.4,0,84.4-38,84.4-84.4v-50.6h318.7c125.8,0,228.7,102.9,228.7,228.7V3700.9z"/>
</svg>
