<?xml version="1.0" encoding="utf-8"?>
<!-- Generator: Adobe Illustrator 25.4.1, SVG Export Plug-In . SVG Version: 6.00 Build 0)  -->
<svg version="1.1" id="OBJECTS" xmlns="http://www.w3.org/2000/svg" xmlns:xlink="http://www.w3.org/1999/xlink" x="0px" y="0px"
	 viewBox="0 0 4048.3 4048.3" style="enable-background:new 0 0 4048.3 4048.3;" xml:space="preserve">
<path stroke-width="61" d="M2528.5,487.4H1519.8c-125.7,0-228.5,102.9-228.5,228.5v2616.5c0,125.7,102.9,228.5,228.5,228.5h1008.7
	c125.7,0,228.5-102.9,228.5-228.5V716C2757,590.2,2654.2,487.4,2528.5,487.4z M2713.1,3332.9c0,98.2-80.3,178.5-178.5,178.5H1513.6
	c-98.2,0-178.5-80.3-178.5-178.5V715.4c0-98.2,80.3-178.5,178.5-178.5H1767v39.5c0,36.2,29.7,65.9,65.9,65.9h387.1
	c36.2,0,65.9-29.7,65.9-65.9v-39.5h248.8c98.2,0,178.5,80.3,178.5,178.5V3332.9L2713.1,3332.9z"/>
</svg>
