<?xml version="1.0" encoding="utf-8"?>
<!-- Generator: Adobe Illustrator 25.4.1, SVG Export Plug-In . SVG Version: 6.00 Build 0)  -->
<svg version="1.1" id="Vrstva_1" xmlns="http://www.w3.org/2000/svg" xmlns:xlink="http://www.w3.org/1999/xlink" x="0px" y="0px"
	 viewBox="0 0 141.7 141.7" stroke-width="3" style="enable-background:new 0 0 141.7 141.7;" xml:space="preserve">
<g>
	<path d="M89.3,100.6c0,3.1-2.6,5.7-5.7,5.7H58.1c-3.1,0-5.7-2.6-5.7-5.7V36.8c0-3.1,2.6-5.7,5.7-5.7h25.6
		c3.1,0,5.7,2.6,5.7,5.7L89.3,100.6L89.3,100.6z"/>
	<path d="M89.3,100.6c0,3.1-2.6,5.7-5.7,5.7H58.1c-3.1,0-5.7-2.6-5.7-5.7V36.8c0-3.1,2.6-5.7,5.7-5.7h25.6
		c3.1,0,5.7,2.6,5.7,5.7L89.3,100.6L89.3,100.6z"/>
</g>
<g>
	<path d="M80.1,33.6c0,1.1-0.9,2-2,2H63.6c-1.1,0-2-0.9-2-2v-1.4c0-1.1,0.9-2,2-2h14.5c1.1,0,2,0.9,2,2V33.6z"/>
</g>
</svg>
