<?xml version="1.0" encoding="utf-8"?>
<!-- Generator: Adobe Illustrator 25.4.1, SVG Export Plug-In . SVG Version: 6.00 Build 0)  -->
<svg version="1.1" id="Vrstva_1" xmlns="http://www.w3.org/2000/svg" xmlns:xlink="http://www.w3.org/1999/xlink" x="0px" y="0px"
	 viewBox="0 0 141.73 141.73" style="enable-background:new 0 0 141.73 141.73;" xml:space="preserve">
<g>
	<rect x="31.4" y="47.36" width="75.43" height="6.46"/>
	<rect x="31.4" y="94.14" width="75.43" height="6.46"/>
	<polyline points="37.08,53.81 37.08,95.07 31.4,94.14 31.4,53.81 	"/>
	<polyline points="106.83,53.81 106.83,95.07 101.15,94.14 101.15,53.81 	"/>
	<polyline points="95.11,53.81 69.11,76.17 42.78,53.81 34.24,53.03 34.73,56.38 69.11,84.11 102.27,56.16 
		103.05,51.24 95.56,51.24 	"/>
	<polyline points="42,95.52 62.24,77.29 57.43,72.71 30.93,96.63 	"/>
	<polyline points="95.76,94.96 75.52,76.73 80.33,72.15 106.83,96.08 	"/>
</g>
</svg>
