<?xml version="1.0" encoding="utf-8"?>
<!-- Generator: Adobe Illustrator 25.4.1, SVG Export Plug-In . SVG Version: 6.00 Build 0)  -->
<svg version="1.1" id="Vrstva_1" xmlns="http://www.w3.org/2000/svg" xmlns:xlink="http://www.w3.org/1999/xlink" x="0px" y="0px"
	 viewBox="0 0 141.73 141.73" style="enable-background:new 0 0 141.73 141.73;" xml:space="preserve">
<g>
	<g>
		<path d="M132.97,100.87H82.83c-0.31,0-0.57,0.26-0.57,0.57v0.19c0,1.05-0.85,1.9-1.9,1.9H61.37
			c-1.05,0-1.9-0.85-1.9-1.9v-0.19c0-0.31-0.26-0.57-0.57-0.57H8.77c-0.31,0-0.57,0.26-0.57,0.57v0.52c0,0.51,0.25,0.98,0.68,1.26
			l1.19,0.8c2.5,1.66,5.43,2.55,8.43,2.55h104.75c3,0,5.93-0.89,8.43-2.55l1.19-0.8c0.42-0.28,0.68-0.76,0.68-1.26v-0.52
			C133.54,101.13,133.28,100.87,132.97,100.87z"/>
		<path d="M81.44,101.44H60.29c-0.12,0-0.22,0.09-0.24,0.21c-0.1,0.81,0.53,1.5,1.32,1.5h18.99
			c0.79,0,1.42-0.69,1.32-1.5C81.67,101.53,81.56,101.44,81.44,101.44z"/>
	</g>
	<path d="M118.72,35.16H23.01c-1.89,0-3.42,1.53-3.42,3.42v58.87c0,1.89,1.53,3.42,3.42,3.42h95.71
		c1.89,0,3.42-1.53,3.42-3.42V38.58C122.14,36.69,120.61,35.16,118.72,35.16z M119.29,95.65H22.44V40.58h96.85V95.65z"/>
	<g>
		<circle class="st1" cx="70.87" cy="37.82" r="0.66"/>
		<circle class="st2" cx="70.87" cy="37.82" r="0.38"/>
	</g>
</g>
</svg>
