<?xml version="1.0" encoding="utf-8"?>
<!-- Generator: Adobe Illustrator 25.4.1, SVG Export Plug-In . SVG Version: 6.00 Build 0)  -->
<svg version="1.1" id="Vrstva_1" xmlns="http://www.w3.org/2000/svg" xmlns:xlink="http://www.w3.org/1999/xlink" x="0px" y="0px"
	 viewBox="0 0 510.2 510.2" style="enable-background:new 0 0 510.2 510.2;" xml:space="preserve">
<path d="M500,95.2H10.2c-5.5,0-10,4.5-10,10v209.9v9.8c0,4.9,3.5,9,8.3,9.8l449.8,80.1c0.6,0.1,1.2,0.2,1.7,0.2
	c2.3,0,4.6-0.8,6.4-2.3c2.3-1.9,3.6-4.7,3.6-7.7v-34.9h10c5.5,0,10-4.5,10-10v-35h10c5.5,0,10-4.5,10-10V105.2
	C510,99.7,505.5,95.2,500,95.2z M391.3,305.1H84.5c-4.5-33.3-30.9-59.8-64.3-64.3v-61.4c33.3-4.5,59.8-30.9,64.3-64.3h306.8
	c8.8,35.3,62.3,60.2,98.7,64.4v61.2C453.6,244.9,400,269.9,391.3,305.1z M20.2,261.1c22.3,4.1,39.9,21.8,44.1,44.1H20.2V261.1z
	 M490,159.5c-28.9-3.8-67.7-22.9-77.6-44.2H490V159.5z M64.3,115.2c-4.1,22.3-21.8,39.9-44.1,44.1v-44.1L64.3,115.2L64.3,115.2z
	 M450,393.2l-307.4-54.7L450,369.2V393.2z M470,350.1h-9.5l-249.9-25H470V350.1z M412.4,305.1c9.8-21.4,48.7-40.4,77.6-44.2v44.2
	H412.4z"/>
</svg>
