<?xml version="1.0" encoding="utf-8"?>
<!-- Generator: Adobe Illustrator 25.4.1, SVG Export Plug-In . SVG Version: 6.00 Build 0)  -->
<svg version="1.1" id="Vrstva_1" xmlns="http://www.w3.org/2000/svg" xmlns:xlink="http://www.w3.org/1999/xlink" x="0px" y="0px"
	 viewBox="0 0 510.2 510.2" style="enable-background:new 0 0 510.2 510.2;" xml:space="preserve">
<g>
	<path stroke-width="5" d="M153.7,137.2c13.8,0,26.3,6.2,35.2,16.3c8.8,9.8,14.2,23.3,14.2,38.1c0,14.8-5.4,28.3-14.2,38.1
		c-9,10.1-21.4,16.3-35.2,16.3c-13.8,0-26.3-6.2-35.2-16.3c-8.8-9.8-14.2-23.3-14.2-38.1c0-14.8,5.4-28.3,14.2-38.1
		C127.4,143.4,139.9,137.2,153.7,137.2L153.7,137.2z M177.3,163.9c-6.1-6.8-14.4-11-23.6-11c-9.2,0-17.5,4.2-23.6,11
		c-6.3,7-10.2,16.8-10.2,27.7c0,10.9,3.9,20.7,10.2,27.7c6.1,6.8,14.4,11,23.6,11c9.2,0,17.5-4.2,23.6-11c6.3-7,10.2-16.8,10.2-27.7
		C187.4,180.7,183.6,170.9,177.3,163.9z"/>
	<path stroke-width="5" d="M243.7,377.8h-180h-8.2l0.3-8.1c2.7-64.3,26.7-106.8,57-126.5c13-8.5,27.2-12.8,41.4-12.8
		c14.3-0.1,28.5,4.1,41.4,12.6c29.6,19.4,53.1,61.4,55.8,126.7l0.3,8.1H243.7L243.7,377.8z M72,362.1h163.5
		c-3.9-54.9-23.7-90-48.3-106.1c-10.4-6.8-21.6-10.1-32.8-10.1c-11.2,0-22.5,3.5-33,10.3C96.2,272.6,75.9,308.1,72,362.1z"/>
	<path stroke-width="5" d="M44.7,97h420.8c11.1,0,21.3,4.6,28.6,11.9c7.3,7.3,11.9,17.5,11.9,28.6v239.9c0,11.1-4.6,21.3-11.9,28.6
		c-7.3,7.3-17.5,11.9-28.6,11.9H44.7c-11.1,0-21.3-4.6-28.6-11.9c-7.3-7.3-11.9-17.5-11.9-28.6V137.6c0-11.1,4.6-21.3,11.9-28.6
		C23.5,101.6,33.6,97,44.7,97L44.7,97z M465.5,112.7H44.7c-6.8,0-13,2.8-17.5,7.3c-4.5,4.5-7.3,10.7-7.3,17.5v239.9
		c0,6.8,2.8,13,7.3,17.5c4.5,4.5,10.7,7.3,17.5,7.3h420.8c6.8,0,13-2.8,17.5-7.3c4.5-4.5,7.3-10.7,7.3-17.5V137.6
		c0-6.8-2.8-13-7.3-17.5C478.5,115.5,472.3,112.7,465.5,112.7z"/>
	<path stroke-width="5" d="M291.6,177.4c-4.3,0-7.8,3.5-7.8,7.8c0,4.3,3.5,7.8,7.8,7.8h155c4.3,0,7.8-3.5,7.8-7.8c0-4.3-3.5-7.8-7.8-7.8
		H291.6z"/>
	<path stroke-width="5" d="M291.6,225.6c-4.3,0-7.8,3.5-7.8,7.8c0,4.3,3.5,7.8,7.8,7.8h155c4.3,0,7.8-3.5,7.8-7.8c0-4.3-3.5-7.8-7.8-7.8
		H291.6z"/>
	<path stroke-width="5" d="M291.6,273.7c-4.3,0-7.8,3.5-7.8,7.8c0,4.3,3.5,7.8,7.8,7.8h155c4.3,0,7.8-3.5,7.8-7.8c0-4.3-3.5-7.8-7.8-7.8
		H291.6z"/>
	<path stroke-width="5" d="M291.6,321.9c-4.3,0-7.8,3.5-7.8,7.8c0,4.3,3.5,7.8,7.8,7.8h155c4.3,0,7.8-3.5,7.8-7.8c0-4.3-3.5-7.8-7.8-7.8
		H291.6z"/>
</g>
</svg>
