<?xml version="1.0" encoding="utf-8"?>
<!-- Generator: Adobe Illustrator 25.4.1, SVG Export Plug-In . SVG Version: 6.00 Build 0)  -->
<svg version="1.1" id="Vrstva_1" xmlns="http://www.w3.org/2000/svg" xmlns:xlink="http://www.w3.org/1999/xlink" x="0px" y="0px"
	 viewBox="0 0 566.9 566.9" style="enable-background:new 0 0 566.9 566.9;" xml:space="preserve">
<path d="M75.5,224.8h38.2l292.9-78.5c4.5-1.2,9.2,1.5,10.4,6c3.3,12.5,11.4,22.4,21.8,28.4l0,0c10.3,6,23,8,35.5,4.6
	c4.5-1.2,9.2,1.5,10.4,6l9,33.4H509l-29-108.4L75.5,224.8L75.5,224.8z M179.5,224.8h296.6l-5.7-21.3c-14.2,1.8-28.2-1.2-40-8l0,0
	l0,0c-11.8-6.8-21.4-17.4-26.9-30.6L179.5,224.8L179.5,224.8z M526.6,224.8H556c4.7,0,8.5,3.8,8.5,8.5c0,0.3,0,0.5,0,0.8l0,264
	c0,4.7-3.8,8.5-8.5,8.5v0H10.9c-4.7,0-8.5-3.8-8.5-8.5V233.6l0-0.3c0-3.4,2-6.3,4.8-7.7l348-200.9c4.1-2.4,9.3-1,11.6,3.1l50.7,87.8
	l66.3-17.8c4.5-1.2,9.2,1.5,10.4,6L526.6,224.8L526.6,224.8z M547.5,241.8h-27.4h-33H114.8H19.4v247.7h528.1L547.5,241.8
	L547.5,241.8z M98,251.7h370.9c4.7,0,8.5,3.8,8.5,8.5c0,12.9,5.2,24.6,13.7,33c0.1,0.1,0.3,0.3,0.4,0.4c8.4,8.2,19.9,13.3,32.6,13.3
	c4.7,0,8.5,3.8,8.5,8.5v100.5c0,4.7-3.8,8.5-8.5,8.5c-12.9,0-24.6,5.2-33,13.7c-8.5,8.5-13.7,20.1-13.7,33c0,4.7-3.8,8.5-8.5,8.5H98
	c-4.7,0-8.5-3.8-8.5-8.5c0-12.9-5.2-24.6-13.7-33.1l0,0c-8.5-8.5-20.1-13.7-33-13.7c-4.7,0-8.5-3.8-8.5-8.5V315.4
	c0-4.7,3.8-8.5,8.5-8.5c12.9,0,24.6-5.2,33-13.7c8.5-8.5,13.7-20.1,13.7-33C89.5,255.5,93.3,251.7,98,251.7L98,251.7z M461,268.7
	h-355c-1.9,14.2-8.5,26.9-18.1,36.6c-9.6,9.6-22.4,16.2-36.6,18.1V408c14.2,1.9,26.9,8.5,36.6,18.1l0,0l0,0
	c9.6,9.6,16.2,22.4,18.1,36.5h355c1.9-14.2,8.5-26.9,18.1-36.6c9.6-9.6,22.4-16.2,36.6-18.1v-84.6c-13.9-1.9-26.5-8.3-36.1-17.6
	c-0.2-0.1-0.3-0.3-0.5-0.5C469.4,295.6,462.9,282.9,461,268.7L461,268.7z M283.5,288.8c21.2,0,40.4,8.6,54.3,22.5
	c13.9,13.9,22.5,33.1,22.5,54.3h0c0,21.2-8.6,40.4-22.5,54.3c-13.9,13.9-33.1,22.5-54.3,22.5c-21.2,0-40.4-8.6-54.3-22.5
	c-13.9-13.9-22.5-33.1-22.5-54.3c0-21.2,8.6-40.4,22.5-54.3C243,297.4,262.2,288.8,283.5,288.8L283.5,288.8z M325.7,323.4
	c-10.8-10.8-25.8-17.5-42.3-17.5c-16.5,0-31.5,6.7-42.3,17.5c-10.8,10.8-17.5,25.8-17.5,42.3c0,16.5,6.7,31.5,17.5,42.3
	c10.8,10.8,25.8,17.5,42.3,17.5c16.5,0,31.5-6.7,42.3-17.5c10.8-10.8,17.5-25.8,17.5-42.3h0C343.2,349.1,336.6,334.2,325.7,323.4
	L325.7,323.4z M140.8,331.1c9.5,0,18.2,3.9,24.4,10.1c6.2,6.2,10.1,14.9,10.1,24.4c0,9.5-3.9,18.2-10.1,24.4
	c-6.2,6.2-14.9,10.1-24.4,10.1v0c-9.5,0-18.2-3.9-24.4-10.1l0,0l0,0c-6.2-6.2-10.1-14.9-10.1-24.4c0-9.5,3.9-18.2,10.1-24.4
	c0.2-0.2,0.4-0.3,0.5-0.5C123.1,334.8,131.6,331.1,140.8,331.1L140.8,331.1z M153.2,353.3c-3.2-3.2-7.5-5.1-12.4-5.1
	c-4.7,0-8.9,1.8-12,4.7l-0.4,0.4c-3.2,3.2-5.1,7.5-5.1,12.4c0,4.8,2,9.2,5.1,12.4l0,0c3.2,3.2,7.6,5.1,12.4,5.1v0
	c4.8,0,9.2-2,12.4-5.1c3.2-3.2,5.1-7.5,5.1-12.4C158.3,360.8,156.3,356.4,153.2,353.3L153.2,353.3z M426.1,331.1
	c9.5,0,18.2,3.9,24.4,10.1c6.2,6.2,10.1,14.9,10.1,24.4c0,9.5-3.9,18.2-10.1,24.4c-6.2,6.2-14.9,10.1-24.4,10.1
	c-9.5,0-18.2-3.9-24.4-10.1c-6.2-6.2-10.1-14.9-10.1-24.4c0-9.5,3.9-18.2,10.1-24.4C407.9,335,416.6,331.1,426.1,331.1L426.1,331.1z
	 M438.5,353.3c-3.2-3.2-7.5-5.1-12.4-5.1c-4.8,0-9.2,2-12.4,5.1c-3.2,3.2-5.1,7.5-5.1,12.4c0,4.8,2,9.2,5.1,12.4
	c3.2,3.2,7.5,5.1,12.4,5.1c4.8,0,9.2-2,12.4-5.1c3.2-3.2,5.1-7.5,5.1-12.4C443.6,360.8,441.6,356.4,438.5,353.3L438.5,353.3z
	 M171.4,181.5L344.9,135c-5.4,0-10.8-0.8-16-2.2c-13.2-3.5-25.2-11.3-34-22.6L171.4,181.5L171.4,181.5z M385.7,124l14.9-4
	l-44.1-76.5L71.1,208.3l37-9.9L292.9,91.8l0.4-0.3c4.1-2.4,9.3-1,11.6,3.1c6.5,11.2,16.8,18.7,28.4,21.8c11.4,3.1,24,1.8,35.1-4.4
	l0.4-0.2c4.1-2.4,9.3-1,11.6,3.1L385.7,124L385.7,124z"/>
</svg>
