<?xml version="1.0" encoding="utf-8"?>
<!-- Generator: Adobe Illustrator 25.4.1, SVG Export Plug-In . SVG Version: 6.00 Build 0)  -->
<svg version="1.1" id="Capa_1" xmlns="http://www.w3.org/2000/svg" xmlns:xlink="http://www.w3.org/1999/xlink" x="0px" y="0px"
	 viewBox="0 0 850.4 850.4" style="enable-background:new 0 0 850.4 850.4;" xml:space="preserve">
<g>
	<g>
		<path d="M103.2,389.4c45.5-3.5,82.4-37.8,89.6-85.7c-66.2,0-126.6,0-192.8,0C8.4,357.5,52.4,393.3,103.2,389.4z"/>
		<path d="M239.4,33.2c-37.1,0.1-74.3,0.2-111.4,0.3c-17.1,0-31,11.7-37,27.8c-79.4,215.2,0.5-0.9-79.2,214.1h182.3
			L239.4,33.2z"/>
		<path d="M192.7,364c-6.1,9.4-19.6,27.3-43.5,40.3c-9.4,5.1-32.8,16.2-63.5,14.3c-9.8-0.6-17.8-2.4-23.4-3.9
			c0.4,108.9,0.8,217.8,1.2,326.7c0.1,34.7,28.3,62.7,62.9,62.7h601.5c34.7,0,62.9-28.2,62.9-62.9V411.6c-4.4,1.8-11,4.1-19.3,5.6
			c-31.3,5.4-56.7-6.8-69.3-12.9c-25.8-12.4-42.4-30.1-51.6-41.9c-4.6,6.6-37.8,52.8-98.3,58c-47.8,4.1-94.6-18.9-122.5-59.6
			c-4.4,6.7-40.5,59.1-108,64.5C242.5,431.6,195,367.3,192.7,364z M494.1,483.2c0-9.7,7.9-17.6,17.6-17.6h138.8
			c9.7,0,17.6,7.9,17.6,17.6v138.8c0,9.7-7.9,17.6-17.6,17.6H511.8c-9.7,0-17.6-7.9-17.6-17.6V483.2z M394.2,465.6v312.7H191V465.6
			H394.2z"/>
		<path d="M413.5,32.8c-47.7,0.1-95.4,0.2-143.1,0.4l-45.3,242.2h188.4V32.8z"/>
		<path d="M213,347.8c24.6,31.8,63.3,50.6,103.7,48.4c39.5-2.1,75.4-24.1,96.7-57.4v-34.5H219.6L213,347.8z"/>
		<path d="M444.1,340c24.2,34.8,64.8,55,106.4,51.5c33.7-2.9,64.2-21,84.2-48.5l-5.6-38.6h-185V340z"/>
		<path d="M665.2,339.3c23.3,37.9,66.3,58.3,106.2,50.6c38.4-7.5,69.8-40.1,79-82.2c-0.4-1.1-0.8-2.1-1.2-3.2H660.1
			L665.2,339.3z"/>
		<path d="M444.1,32.7v242.7h179.6L580,32.4C534.7,32.5,489.4,32.6,444.1,32.7z"/>
		<path d="M700.9,32c-30,0.1-60,0.2-90,0.2l43.8,243.1h183.8L737.2,57.3C731.6,42.1,717.1,32,700.9,32z"/>
	</g>
	<polyline points="239.4,33.2 610.9,32.3 654.7,275.4 182,275.4 	"/>
	<line x1="0" y1="303.7" x2="11.9" y2="275.4"/>
</g>
</svg>
