<?xml version="1.0" encoding="utf-8"?>
<!-- Generator: Adobe Illustrator 25.4.1, SVG Export Plug-In . SVG Version: 6.00 Build 0)  -->
<svg version="1.1" id="Vrstva_1" xmlns="http://www.w3.org/2000/svg" xmlns:xlink="http://www.w3.org/1999/xlink" x="0px" y="0px"
	 viewBox="0 0 141.7 141.7" style="enable-background:new 0 0 141.7 141.7;" xml:space="preserve">
<style type="text/css">
	.st0{fill:none;stroke:#000;stroke-width:5;stroke-miterlimit:10;}
	.st1{fill:#000;}
</style>
<path class="st0" d="M104.2,128.6c0,5.6-4.7,10.3-10.3,10.3H47.6c-5.6,0-10.3-4.7-10.3-10.3V12.9c0-5.6,4.7-10.3,10.3-10.3h46.4
	c5.6,0,10.3,4.7,10.3,10.3L104.2,128.6L104.2,128.6z"/>
<g>
	<path class="st1" d="M88.1,8.7c0,2-1.6,3.6-3.6,3.6H58.1c-2,0-3.6-1.6-3.6-3.6V6.2c0-2,1.6-3.6,3.6-3.6h26.3c2,0,3.6,1.6,3.6,3.6
		V8.7z"/>
</g>
</svg>
