<?xml version="1.0" encoding="utf-8"?>
<!-- Generator: Adobe Illustrator 25.4.1, SVG Export Plug-In . SVG Version: 6.00 Build 0)  -->
<svg version="1.1" id="Vrstva_1" xmlns="http://www.w3.org/2000/svg" xmlns:xlink="http://www.w3.org/1999/xlink" x="0px" y="0px"
	 viewBox="0 0 566.9 566.9" style="enable-background:new 0 0 566.9 566.9;" xml:space="preserve">
<g>
	<path d="M511.6,255.1h-37.3l2.9-32.3c0-0.4-0.1-0.7-0.1-1c0-0.4,0.2-0.7,0.2-1.1c0-43.2-191.7-44.4-213.6-44.4
		s-213.6,1.3-213.6,44.4c0,0.4,0.1,0.7,0.2,1.1c0,0.4-0.1,0.7-0.1,1l6.2,69.6C59.9,332.5,74.5,369,97,399.1
		c-37.1,19.3-57.4,44.4-57.4,71.5c0,64.9,112.5,93.9,224.1,93.9s224.1-29,224.1-93.9c0-27.2-20.4-52.4-57.7-71.6
		c8.2-10.9,15.3-22.7,21.3-35.3c15.1-0.6,29.7-4.9,42.5-12.8c6.7-4.1,12.9-9.2,18.3-15c9.8-10.5,15.2-24.3,15.2-38.9v-26.1
		C527.3,262.1,520.3,255.1,511.6,255.1z M263.7,195.3c118.6,0,183,16,193.6,25.3c-10.6,9.3-75,25.3-193.6,25.3s-183-16-193.6-25.3
		C80.7,211.3,145.1,195.3,263.7,195.3z M468.6,470.6c0,43.3-86.2,74.8-205,74.8S58.7,513.9,58.7,470.6c0-20.1,18.5-40.4,50.8-56.3
		c4.4,4.8,9,9.4,13.8,13.8c-16.4,12.8-20.3,25.7-20.3,35c0,47.3,85.6,57.2,157.4,57.2c61.2,0,163.9-7.4,163.9-57.2
		c0-9.3-4-22.4-20.6-35.3c4.8-4.3,9.3-8.9,13.7-13.7C449.9,430,468.6,450.3,468.6,470.6z M388.5,440.4c10.8,7.3,16.6,15.3,16.6,22.7
		c0,18.3-45.3,38.1-144.8,38.1c-84,0-138.3-14.9-138.3-38.1c0-7.4,5.7-15.2,16.3-22.5c34.8,26.1,78.2,41.5,125.2,41.5
		C309.6,482,353.2,466.8,388.5,440.4z M408.7,395c-0.7,0.6-1.2,1.3-1.7,2.1c-35.3,41.1-87.4,65.8-143.4,65.8
		c-98.6,0-179.5-74.1-188.2-172.3l-4.3-48.5c50.3,22.1,175.2,22.9,192.6,22.9c17.4,0,142.3-0.8,192.6-22.9l-4.3,48.5
		c-1.9,20.8-7,41-15.4,59.8C429.3,366.7,419.8,381.7,408.7,395z M508.2,296.9c0,9.7-3.6,18.9-10,25.9c-4.2,4.6-9,8.5-14.3,11.7
		c-7.4,4.6-15.6,7.5-24.1,9c5.8-16.4,9.6-33.6,11.2-51.2l1.6-18.1h35.6V296.9z"/>
	<path d="M215.5,144.7c1.4,0,2.9-0.4,4.1-1.2c3.5-2.3,4.5-7,2.2-10.5c-0.1-0.1-9.2-14.6-1.3-21.6l1-0.9
		c12.6-11.1,28.3-24.8,15.8-54.6c-9.6-22.9-6.1-44.4-6.1-44.6c0.7-4.1-2-8-6.1-8.8c-4.2-0.8-8,2-8.8,6.1c-0.2,1.1-4.4,25.9,7,53.1
		c8.3,19.7,0.7,26.3-11.8,37.3l-1,0.9c-14.3,12.5-7.1,32.5-1.3,41.2C210.6,143.5,213.1,144.7,215.5,144.7z"/>
	<path d="M257.1,144.7c1.4,0,2.9-0.4,4.1-1.2c3.5-2.3,4.5-7,2.2-10.5c-0.1-0.1-9.2-14.6-1.3-21.6l1-0.9
		c12.6-11.1,28.3-24.8,15.8-54.6c-9.6-22.9-6.1-44.4-6.1-44.6c0.7-4.1-2-8-6.1-8.8c-4.1-0.8-8.1,2-8.8,6.1c-0.2,1.1-4.4,25.9,7,53.1
		c8.3,19.7,0.7,26.3-11.8,37.3l-1,0.9c-14.3,12.5-7.1,32.5-1.3,41.2C252.2,143.5,254.7,144.7,257.1,144.7z"/>
	<path d="M298.7,144.7c1.4,0,2.9-0.4,4.1-1.2c3.5-2.3,4.5-7,2.2-10.5c-0.1-0.1-9.2-14.6-1.3-21.6l1-0.9
		c12.6-11.1,28.3-24.8,15.8-54.6c-9.6-22.9-6.1-44.4-6.1-44.6c0.7-4.1-2-8-6.1-8.8c-4.1-0.8-8.1,2-8.8,6.1c-0.2,1.1-4.4,25.9,7,53.1
		c8.3,19.7,0.7,26.3-11.8,37.3l-1,0.9c-14.3,12.5-7.1,32.5-1.3,41.2C293.8,143.5,296.2,144.7,298.7,144.7z"/>
</g>
</svg>
