<?xml version="1.0" encoding="utf-8"?>
<!-- Generator: Adobe Illustrator 25.4.1, SVG Export Plug-In . SVG Version: 6.00 Build 0)  -->
<svg version="1.1" id="Vrstva_1" xmlns="http://www.w3.org/2000/svg" xmlns:xlink="http://www.w3.org/1999/xlink" x="0px" y="0px"
	 viewBox="0 0 510.2 510.2" style="enable-background:new 0 0 510.2 510.2;" xml:space="preserve">
<g>
	<g>
		<path d="M373.3,296.6H136.7c-25.9,0-47-21.2-47-47V54.2c0-25.9,21.2-47,47-47h236.6
			c25.9,0,47,21.2,47,47v195.4C420.3,275.7,399.1,296.6,373.3,296.6z M136.7,34.6c-10.8,0-19.5,8.7-19.5,19.5v195.4
			c0,10.8,8.7,19.5,19.5,19.5h236.6c10.8,0,19.5-8.7,19.5-19.5V54.2c0-10.8-8.7-19.5-19.5-19.5C373.3,34.6,136.7,34.6,136.7,34.6z"
			/>
	</g>
	<g>
		<path d="M352.3,391.8H157.6c-18.9,0-34.4-15.3-34.4-34.4v-88.1h263.1v88.1
			C386.4,376.4,371.1,391.8,352.3,391.8z M150.7,296.6v60.8c0,3.8,3,6.8,6.8,6.8h194.7c3.8,0,6.8-3,6.8-6.8v-60.8H150.7z"/>
	</g>
	<g>
		<g>
			<path d="M201.1,503.1c-19.5,0-35.6-16-35.6-35.6V364.2h71.4v103.3
				C236.7,487,220.6,503.1,201.1,503.1z M192.9,391.8v75.8c0,4.5,3.8,8.3,8.3,8.3s8.3-3.8,8.3-8.3v-75.8H192.9z"/>
		</g>
		<g>
			<path d="M309,503.1c-19.5,0-35.6-16-35.6-35.6V364.2h71.4v103.3C344.5,487,328.4,503.1,309,503.1z
				 M300.7,391.8v75.8c0,4.5,3.8,8.3,8.3,8.3s8.3-3.8,8.3-8.3v-75.8H300.7z"/>
		</g>
	</g>
</g>
</svg>
