<?xml version="1.0" encoding="utf-8"?>
<!-- Generator: Adobe Illustrator 25.4.1, SVG Export Plug-In . SVG Version: 6.00 Build 0)  -->
<svg version="1.1" id="Vrstva_1" xmlns="http://www.w3.org/2000/svg" xmlns:xlink="http://www.w3.org/1999/xlink" x="0px" y="0px"
	 viewBox="0 0 141.73 141.73" style="enable-background:new 0 0 141.73 141.73;" xml:space="preserve">
<path d="M107.88,107.97c-0.17-0.15-0.11-0.36-0.11-0.54c0-12.55,0-25.11,0-37.66c0-0.13,0.01-0.26,0.02-0.46
	c0.14,0.27,0.08,0.48,0.08,0.68c0,12.38,0,24.76,0,37.14c0,0.25,0.01,0.5,0.02,0.75C107.91,107.91,107.91,107.95,107.88,107.97z"/>
<path d="M114.73,55.22c-4.24-7.28-8.36-14.62-12.51-21.95c-0.58-1.02-1.38-1.48-2.56-1.48c-19.2,0.02-38.4,0.01-57.6,0
	c-1.16,0-1.94,0.46-2.51,1.46c-4.3,7.6-8.61,15.18-12.92,22.77c-0.33,0.59-0.49,1.19-0.45,1.86c0.29,5.02,2.68,8.71,7.07,11.1
	c0.44,0.24,0.56,0.48,0.56,0.96c-0.01,12.42-0.01,24.85-0.01,37.27c0,1.81,0.91,2.73,2.7,2.73c22.89,0,45.79,0,68.68,0
	c0.21,0,0.42,0.01,0.63-0.01c1.06-0.07,1.93-0.89,2.07-1.96c-0.11-0.22-0.06-0.45-0.06-0.68c0-12.51,0-25.01,0-37.44
	c0,0.03,0,0.07,0,0.1c0,12.47,0,24.95,0,37.42c0,0.17-0.05,0.35,0.06,0.5c0.11-0.18,0.06-0.37,0.06-0.56c0-1.68,0-3.37,0-5.05
	c0-10.8,0-21.59,0-32.39c0-0.32-0.02-0.58,0.38-0.78c3.85-1.97,6.22-5.08,7.07-9.33C115.72,58.18,115.6,56.73,114.73,55.22z
	 M42.77,37.15c0.27-0.48,0.56-0.63,1.11-0.63c18.05,0.02,36.1,0.01,54.15,0c0.44,0,0.67,0.13,0.89,0.51
	c3.18,5.62,6.37,11.23,9.55,16.84c0.1,0.17,0.29,0.32,0.21,0.56c-0.18,0.11-0.37,0.06-0.56,0.06c-24.85,0-49.69,0-74.54,0
	c-0.19,0-0.42,0.12-0.58-0.1C36.26,48.65,39.53,42.91,42.77,37.15z M89.42,59.64c-0.97,3.53-4.2,6.02-7.87,6.05
	c-3.7,0.02-6.98-2.45-7.98-5.98c-0.13-0.47-0.06-0.6,0.45-0.59c2.49,0.03,4.97,0.01,7.46,0.01c2.51,0,5.01,0.01,7.52-0.01
	C89.42,59.11,89.55,59.16,89.42,59.64z M68.24,59.66c-0.94,3.51-4.25,6.04-7.95,6.03c-3.71-0.01-7.02-2.57-7.95-6.12
	c-0.12-0.47,0.08-0.45,0.4-0.45c2.53,0.01,5.05,0,7.58,0c2.51,0,5.01,0.02,7.52-0.01C68.34,59.11,68.35,59.26,68.24,59.66z
	 M31.22,59.75c-0.14-0.47-0.15-0.65,0.45-0.64c2.49,0.04,4.98,0.01,7.46,0.01c2.51,0,5.01,0.01,7.52-0.01
	c0.47,0,0.53,0.12,0.41,0.55c-0.98,3.53-4.21,6-7.9,6.03C35.47,65.71,32.26,63.31,31.22,59.75z M62.31,105.23
	c-3.71-0.02-7.43-0.02-11.14,0c-0.45,0-0.52-0.14-0.52-0.54c0.01-7.5,0.01-15,0.01-22.51c0-1.86,0.75-2.82,2.54-3.29
	c0.04-0.04,0.08-0.04,0.12-0.01c2.14,0.01,4.29,0.01,6.43,0.02c1.91,0.01,3.12,1.2,3.12,3.11c0,7.56-0.01,15.12,0.01,22.68
	C62.88,105.15,62.73,105.23,62.31,105.23z M102.71,105.23c-11.54-0.01-23.09-0.01-34.63,0c-0.46,0-0.52-0.15-0.51-0.55
	c0.01-7.58,0.01-15.16,0.01-22.74c0-3.94-2.69-7.09-6.57-7.7c-0.19-0.03-0.38-0.02-0.57-0.02c-0.57,0.1-1.14,0.04-1.71,0.04
	c-1.69,0.01-3.39,0.01-5.08,0c-0.19,0-0.38,0.04-0.56-0.04c-2.81-0.05-5.8,2.22-6.77,5.15c-0.2,0.6-0.38,1.2-0.34,1.84
	c0.09,0.18,0.05,0.38,0.05,0.57c0,7.61,0,15.22,0,22.83c0,0.2,0.1,0.42-0.09,0.59c-2.36,0.01-4.71,0.01-7.07,0.03
	c-0.29,0-0.36-0.12-0.34-0.37c0.01-0.15-0.01-0.3-0.02-0.45c-0.09-0.2-0.05-0.41-0.05-0.62c0-10.92,0-21.84,0-32.77
	c0-0.2-0.09-0.42,0.08-0.6c3.24,0.08,6.14-0.83,8.69-2.85c0.95-0.75,1.75-1.64,2.5-2.64c0.88,1.19,1.87,2.22,3.05,3.06
	c5.68,4.06,13.53,2.91,17.79-2.63c0.28-0.36,0.38-0.41,0.69-0.01c5.19,6.71,15.15,6.75,20.42,0.1c0.13-0.16,0.26-0.33,0.41-0.52
	c1.31,1.82,2.93,3.21,4.91,4.18c1.8,0.87,3.7,1.34,5.7,1.29c0.47-0.01,0.55,0.14,0.55,0.57c-0.01,11.24-0.01,22.47,0,33.71
	C103.23,105.08,103.17,105.23,102.71,105.23z M104.72,65.43c-4.34,1.18-8.78-1.43-9.99-5.75c-0.12-0.42-0.08-0.55,0.4-0.55
	c5.09,0.02,10.18,0.01,15.27,0.01c0.08,0,0.15,0.01,0.33,0.02C109.88,62.41,107.92,64.56,104.72,65.43z"/>
<path d="M33,54.39c0.21,0.01,0.42,0.03,0.63,0.03c24.81,0,49.61,0,74.42,0c0.21,0,0.42,0.01,0.63,0.02
	c0.11,0.13,0.01,0.17-0.09,0.17c-24.99-0.12-49.98-0.02-74.97-0.06C33.41,54.55,33.14,54.68,33,54.39z"/>
<path d="M33.92,107.02c0-12.53,0-25.07,0-37.6c0.02,0,0.04,0,0.06,0c0,12.54,0,25.08,0,37.62
	C33.96,107.03,33.94,107.02,33.92,107.02z"/>
<path d="M103.37,70.56c0,11.51,0,23.03,0,34.54c-0.02,0-0.04,0-0.05,0c0-11.51,0-23.03,0-34.54
	C103.33,70.55,103.35,70.55,103.37,70.56z"/>
<path d="M38.53,70.42c0,3.31-0.01,6.62-0.01,9.93c0,7.81,0,15.62,0,23.43c0,0.21-0.02,0.42-0.02,0.63
	c-0.18-0.17-0.11-0.4-0.11-0.6c0-10.92,0-21.84,0-32.76C38.39,70.84,38.28,70.59,38.53,70.42z"/>
<path d="M45.92,105.2c0-7.75,0-15.5,0-23.25c0-0.25,0.03-0.49,0.05-0.74c0.18,0.17,0.1,0.4,0.1,0.6
	c0,7.59,0,15.18,0,22.77C46.07,104.79,46.19,105.05,45.92,105.2z"/>
<path d="M62.98,105.06c0-7.86,0-15.72,0-23.59c0.02,0,0.04,0,0.06,0c0,7.87,0,15.74,0,23.61
	C63.02,105.08,63,105.07,62.98,105.06z"/>
<path d="M50.54,81.82c0,7.75,0,15.49,0,23.24c-0.02,0-0.04,0-0.06,0c0-7.75,0-15.51,0-23.26
	C50.5,81.81,50.52,81.81,50.54,81.82z"/>
<path d="M47.08,59.02c-5.3,0-10.59,0-15.89,0c0-0.02,0-0.04,0-0.05c5.3,0,10.61,0,15.91,0
	C47.09,58.98,47.08,59,47.08,59.02z"/>
<path d="M68.21,59.02c-5.26,0-10.52,0-15.77,0c0-0.02,0-0.04,0-0.05c5.27,0,10.53,0,15.8,0
	C68.23,58.98,68.22,59,68.21,59.02z"/>
<path d="M94.71,58.92c5.19,0,10.39,0,15.58,0c0,0.03,0,0.05,0,0.08c-5.2,0-10.4,0-15.6,0
	C94.69,58.97,94.7,58.94,94.71,58.92z"/>
<ellipse cx="81.7" cy="58.98" rx="10.69" ry="0.03"/>
<path d="M53.09,74.21c2.45-0.06,4.9-0.06,7.35,0c-0.12,0.13-0.28,0.1-0.43,0.1c-2.17,0-4.33,0-6.5,0
	C53.36,74.32,53.21,74.35,53.09,74.21z"/>
<ellipse cx="42.28" cy="105.39" rx="5.01" ry="0.04"/>
<path d="M53.32,78.88c-0.04,0-0.08,0.01-0.12,0.01c0.03-0.17,0.14-0.21,0.29-0.21c2.23,0,4.47,0,6.7,0.11
	c-0.31,0-0.62,0-0.93,0c-1.78,0-3.56,0-5.33,0C53.72,78.8,53.51,78.73,53.32,78.88z"/>
<path d="M90.07,74.21c-0.16,0.16-0.36,0.1-0.54,0.1c-3.96,0-7.93,0-11.89,0c-0.18,0-0.39,0.06-0.54-0.1
	c0.3-0.01,0.61-0.03,0.91-0.03c3.79,0,7.59,0,11.38,0C89.62,74.18,89.84,74.2,90.07,74.21z"/>
<path d="M95.7,79.1c-0.51-2.67-3.08-4.9-5.63-4.89c-0.14,0.08-0.3,0.05-0.45,0.05c-4.03,0-8.05,0-12.08,0
	c-0.15,0-0.31,0.03-0.45-0.05c-0.15,0-0.31-0.01-0.46,0.01c-3,0.43-5.27,3.03-5.29,6.08c-0.01,3.04,0,6.09,0,9.13
	c0,3.7,2.66,6.38,6.35,6.38c3.94,0.01,7.89,0.01,11.83,0c3.58,0,6.28-2.7,6.29-6.27c0.01-3.04,0-6.09,0-9.13
	C95.82,79.97,95.78,79.53,95.7,79.1z M91.1,89.42c0,1.09-0.57,1.67-1.65,1.67c-3.9,0-7.81,0-11.71,0c-1.09,0-1.67-0.57-1.67-1.65
	c0-2.97,0-5.93,0-8.9c0-1.06,0.57-1.64,1.62-1.64c1.97,0,3.94,0,5.91,0c1.93,0,3.87,0,5.8,0c1.14,0,1.7,0.55,1.7,1.68
	C91.1,83.52,91.1,86.47,91.1,89.42z"/>
<path d="M77.36,78.7c4.11,0,8.22,0,12.33,0c0,0.02,0,0.04,0,0.06c-4.12,0-8.24,0-12.35,0
	C77.35,78.74,77.35,78.72,77.36,78.7z"/>
</svg>
