<?xml version="1.0" encoding="iso-8859-1"?>
<!-- Generator: Adobe Illustrator 19.0.0, SVG Export Plug-In . SVG Version: 6.00 Build 0)  -->
<svg version="1.1" id="Capa_1" xmlns="http://www.w3.org/2000/svg" xmlns:xlink="http://www.w3.org/1999/xlink" x="0px" y="0px"
	 viewBox="0 0 512 512" style="enable-background:new 0 0 512 512;" xml:space="preserve">
<g>
	<g>
		<path d="M492,352c11.046,0,20-8.954,20-20V152c0-11.046-8.954-20-20-20H366v-22C366,49.346,316.654,0,256,0S146,49.346,146,110v22
			H20c-11.046,0-20,8.954-20,20v280c0,44.112,35.888,80,80,80h352c44.112,0,80-35.888,80-80c0-11.046-8.954-20-20-20
			c-11.046,0-20,8.954-20,20c0,22.056-17.944,40-40,40H80c-22.056,0-40-17.944-40-40V172h106v75c0,11.046,8.954,20,20,20
			s20-8.954,20-20V110c0-38.598,31.401-70,70-70s70,31.402,70,70v22h-80c-11.046,0-20,8.954-20,20s8.954,20,20,20h80v75
			c0,11.046,8.954,20,20,20c11.046,0,20-8.954,20-20v-75h106v160C472,343.046,480.954,352,492,352z"/>
	</g>
</g>
<g>
</g>
<g>
</g>
<g>
</g>
<g>
</g>
<g>
</g>
<g>
</g>
<g>
</g>
<g>
</g>
<g>
</g>
<g>
</g>
<g>
</g>
<g>
</g>
<g>
</g>
<g>
</g>
<g>
</g>
</svg>
