<?xml version="1.0" encoding="utf-8"?>
<!-- Generator: Adobe Illustrator 25.4.1, SVG Export Plug-In . SVG Version: 6.00 Build 0)  -->
<svg version="1.1" id="Vrstva_1" xmlns="http://www.w3.org/2000/svg" xmlns:xlink="http://www.w3.org/1999/xlink" x="0px" y="0px"
	 viewBox="0 0 566.9 566.9" style="enable-background:new 0 0 566.9 566.9;" xml:space="preserve">
<g>
	<path d="M224.4,276.2c0,32.6,26.5,59.1,59.1,59.1s59.1-26.5,59.1-59.1s-26.5-59.1-59.1-59.1S224.4,243.6,224.4,276.2z
		 M318.9,276.2c0,19.5-15.9,35.4-35.4,35.4S248,295.7,248,276.2s15.9-35.4,35.4-35.4S318.9,256.6,318.9,276.2z"/>
	<path d="M224.4,441.5c-6.5,0-11.8,5.3-11.8,11.8l0,47.2c0,6.5,5.3,11.8,11.8,11.8c6.5,0,11.8-5.3,11.8-11.8l0-47.2
		C236.2,446.8,231,441.5,224.4,441.5z"/>
	<path d="M342.5,441.5c-6.5,0-11.8,5.3-11.8,11.8v47.2c0,6.5,5.3,11.8,11.8,11.8s11.8-5.3,11.8-11.8v-47.2
		C354.3,446.8,349.1,441.5,342.5,441.5z"/>
	<path d="M283.5,358.8c-65.1,0-118.1,26.5-118.1,59.1v82.7c0,6.5,5.3,11.8,11.8,11.8c6.5,0,11.8-5.3,11.8-11.8v-82.7
		c0-12.2,36.8-35.4,94.5-35.4s94.5,23.3,94.5,35.4v82.7c0,6.5,5.3,11.8,11.8,11.8c6.5,0,11.8-5.3,11.8-11.8v-82.7
		C401.6,385.3,348.6,358.8,283.5,358.8z"/>
	<path d="M502,311.6c0-29.3-23.8-53.1-53.1-53.1c-29.3,0-53.1,23.8-53.1,53.1c0,29.3,23.8,53.1,53.1,53.1
		C478.1,364.7,502,340.9,502,311.6z M419.3,311.6c0-16.3,13.2-29.5,29.5-29.5s29.5,13.2,29.5,29.5s-13.2,29.5-29.5,29.5
		S419.3,327.9,419.3,311.6z"/>
	<path d="M507.9,465.1c-6.5,0-11.8,5.3-11.8,11.8v23.6c0,6.5,5.3,11.8,11.8,11.8s11.8-5.3,11.8-11.8v-23.6
		C519.7,470.4,514.4,465.1,507.9,465.1z"/>
	<path d="M448.8,382.5c-8.4,0-16.8,0.5-24.9,1.4c-6.5,0.7-11.2,6.6-10.4,13c0.7,6,5.8,10.5,11.7,10.5
		c0.4,0,0.9,0,1.3-0.1c7.3-0.8,14.8-1.2,22.3-1.2c57.7,0,94.5,23.3,94.5,35.4v59.1c0,6.5,5.3,11.8,11.8,11.8s11.8-5.3,11.8-11.8
		v-59.1C566.9,409,513.9,382.5,448.8,382.5z"/>
	<path d="M283.5,158.1c29.3,0,53.1-23.8,53.1-53.1c0-29.3-23.8-53.1-53.1-53.1c-29.3,0-53.1,23.8-53.1,53.1
		C230.3,134.2,254.2,158.1,283.5,158.1z M283.5,75.4c16.3,0,29.5,13.2,29.5,29.5s-13.2,29.5-29.5,29.5c-16.3,0-29.5-13.2-29.5-29.5
		S267.2,75.4,283.5,75.4z"/>
	<path d="M118.1,258.4c-29.3,0-53.1,23.8-53.1,53.1c0,29.3,23.8,53.1,53.1,53.1s53.1-23.8,53.1-53.1
		C171.3,282.3,147.4,258.4,118.1,258.4z M118.1,341.1c-16.3,0-29.5-13.2-29.5-29.5s13.2-29.5,29.5-29.5s29.5,13.2,29.5,29.5
		S134.4,341.1,118.1,341.1z"/>
	<path d="M59.1,465.1c-6.5,0-11.8,5.3-11.8,11.8v23.6c0,6.5,5.3,11.8,11.8,11.8c6.5,0,11.8-5.3,11.8-11.8v-23.6
		C70.9,470.4,65.6,465.1,59.1,465.1z"/>
	<path d="M143,383.8c-8.2-0.9-16.5-1.4-24.9-1.4C53,382.5,0,409,0,441.5v59.1c0,6.5,5.3,11.8,11.8,11.8
		c6.5,0,11.8-5.3,11.8-11.8v-59.1c0-12.2,36.8-35.4,94.5-35.4c7.5,0,15,0.4,22.3,1.2c0.4,0.1,0.9,0.1,1.3,0.1
		c5.9,0,11.1-4.5,11.7-10.5C154.2,390.4,149.5,384.5,143,383.8z"/>
	<path d="M177.2,263.9c6.5,0,11.8-5.3,11.8-11.8v-17.2c0-12.2,36.8-35.4,94.5-35.4c57.7,0,94.5,23.3,94.5,35.4v17.2
		c0,6.5,5.3,11.8,11.8,11.8c6.5,0,11.8-5.3,11.8-11.8v-17.2c0-32.6-53-59.1-118.1-59.1c-65.1,0-118.1,26.5-118.1,59.1v17.2
		C165.4,258.6,170.7,263.9,177.2,263.9z"/>
</g>
</svg>
