<?xml version="1.0" encoding="utf-8"?>
<!-- Generator: Adobe Illustrator 25.4.1, SVG Export Plug-In . SVG Version: 6.00 Build 0)  -->
<svg version="1.1"
	  xmlns:cc="http://creativecommons.org/ns#" xmlns:dc="http://purl.org/dc/elements/1.1/" xmlns:rdf="http://www.w3.org/1999/02/22-rdf-syntax-ns#" xmlns:svg="http://www.w3.org/2000/svg"
	 xmlns="http://www.w3.org/2000/svg" xmlns:xlink="http://www.w3.org/1999/xlink" x="0px" y="0px" viewBox="0 0 1133.9 1133.9"
	 style="enable-background:new 0 0 1133.9 1133.9;" xml:space="preserve">
<g>
	<rect x="0" y="0" fill="none" width="1133.9" height="1133.9"/>
	<g transform="translate(346.8782,708.6862)">
		<path d="M115.6-519.7c-72.8,0-142,28.6-193.4,80.1c-51.5,51.5-80.1,120.6-80.1,193.4
			c0,72.8,28.6,141.9,80.1,193.4C-26.3-1.3,42.8,27.4,115.6,27.4c72.8,0,142-28.6,193.4-80.1c51.5-51.5,80.1-120.6,80.1-193.4
			c0-72.8-28.6-142-80.1-193.4C257.6-491.1,188.4-519.7,115.6-519.7 M-134.2-496c66.5-66.5,155.8-103.5,249.8-103.5
			c94,0,183.4,37,249.8,103.5c66.5,66.5,103.5,155.8,103.5,249.8c0,94-37,183.4-103.5,249.8C299,70.1,209.6,107.1,115.6,107.1
			c-94,0-183.4-37-249.8-103.5c-66.5-66.5-103.5-155.8-103.5-249.8C-237.7-340.2-200.6-429.5-134.2-496"/>
	</g>
	<g transform="translate(550.5709,291.2887)">
		<path d="M183.5,454.2l11.4-11.4c14.9-14.9,34.5-22.3,54.1-22.3c19.6,0,39.2,7.4,54.1,22.3l257.8,257.8
			c14.9,14.9,22.3,34.5,22.3,54.1c0,19.6-7.4,39.2-22.3,54.1l-11.4,11.4c-14.9,14.9-34.5,22.3-54.1,22.3v0.1
			c-19.6,0-39.2-7.5-54.1-22.4L183.5,562.4l0,0c-14.9-14.9-22.3-34.5-22.3-54.1C161.2,488.7,168.6,469.1,183.5,454.2L183.5,454.2z"
			/>
	</g>
	<g transform="translate(538.6353,354.0417)">
		<path fill="#d2be99" d="M179.5,307.8l60.3,60.3c15.6,15.6,15.6,40.8,0,56.4c-15.6,15.6-40.8,15.6-56.4,0l-60.3-60.3
			c-15.6-15.6-15.6-40.8,0-56.4C138.7,292.2,164,292.2,179.5,307.8"/>
	</g>
	<g transform="translate(26.5829,726.911)">
		<path stroke="#d2be99" d="M8.9-562.3c64.2-8.7,71.3-15.8,80-80c8.7,64.2,15.8,71.3,80,80c-64.2,8.7-71.3,15.8-80,80
			C80.1-546.5,73.1-553.5,8.9-562.3z"/>
	</g>
	<g transform="translate(135.3172,791.3447)">
		<path fill="#d2be99" d="M45.1-712.6c48.6-6.6,54-12,60.6-60.6c6.6,48.6,12,54,60.6,60.6c-48.6,6.6-54,12-60.6,60.6
			C99.1-700.6,93.8-706,45.1-712.6"/>
	</g>
	<g transform="translate(194.1687,597.7731)">
		<path d="M64.7-260.9c42.3-5.7,46.9-10.4,52.7-52.7c5.8,42.3,10.4,46.9,52.7,52.7
			c-42.3,5.7-46.9,10.4-52.7,52.7C111.7-250.5,107-255.2,64.7-260.9"/>
	</g>
</g>
</svg>
