<?xml version="1.0" encoding="utf-8"?>
<!-- Generator: Adobe Illustrator 25.4.1, SVG Export Plug-In . SVG Version: 6.00 Build 0)  -->
<svg version="1.1" id="Vrstva_1" xmlns="http://www.w3.org/2000/svg" xmlns:xlink="http://www.w3.org/1999/xlink" x="0px" y="0px"
	 viewBox="0 0 141.73 141.73" style="enable-background:new 0 0 141.73 141.73;" xml:space="preserve">
<g>
	<g>
		<path d="M107.72,21.42H69.81c-1.85,0-3.36,1.51-3.36,3.36v81.17c0,1.85,1.51,3.36,3.36,3.36h37.91
			c1.85,0,3.36-1.51,3.36-3.36V24.78C111.08,22.93,109.57,21.42,107.72,21.42z M107.85,102.51c0,1.85-1.51,3.36-3.36,3.36H73.06
			c-1.85,0-3.36-1.51-3.36-3.36V28.19c0-1.85,1.51-3.36,3.36-3.36h31.42c1.85,0,3.36,1.51,3.36,3.36V102.51z"/>
		<g>
			<path d="M99.86,24.85c0,1.85-1.51,3.36-3.36,3.36H81.05c-1.85,0-3.36-1.51-3.36-3.36v-0.07
				c0-1.85,1.51-3.36,3.36-3.36H96.5c1.85,0,3.36,1.51,3.36,3.36C99.86,24.78,99.86,24.85,99.86,24.85z"/>
		</g>
	</g>
	<g>
		<path d="M64.49,29.62L28.42,41.28c-1.76,0.57-2.74,2.47-2.17,4.24l24.96,77.24c0.57,1.76,2.47,2.74,4.24,2.17
			l36.07-11.66c1.76-0.57,2.74-2.47,2.17-4.24c-1.38-0.9-3.48-2.01-6.18-2.45c-2.32-0.38-3.96-0.08-5.75,0.09
			c-0.68,0.07-8.02,0.75-10.92-0.49c-5.9-2.53-4.3-17.8-3.54-38.36c0.46-12.42,0.56-22.34,0.57-28.14c1.76-4.7,1.19-8.7-0.81-9.84
			C66.65,29.6,65.86,29.3,64.49,29.62z M89.55,106.74c0.57,1.76-0.4,3.67-2.17,4.24l-29.9,9.66c-1.76,0.57-3.67-0.4-4.24-2.17
			L30.39,47.75c-0.57-1.76,0.4-3.67,2.17-4.24l29.9-9.66c1.76-0.57,3.67,0.4,4.24,2.17c1.78,34.09,1.71,47.49,1.05,52.13
			c-0.01,0.04-0.56,3.97-0.34,9.26c0.17,4.06,0.26,6.09,1.28,7.68c3.39,5.28,12.6,4.32,13.39,4.23
			C85.52,108.91,88.11,107.6,89.55,106.74z"/>
		<g>
			<path d="M58.07,35.3c0.57,1.76-0.4,3.67-2.17,4.24l-14.7,4.75c-1.76,0.57-3.67-0.4-4.24-2.17l-0.02-0.07
				c-0.57-1.76,0.4-3.67,2.17-4.24l14.7-4.75c1.76-0.57,3.67,0.4,4.24,2.17C58.05,35.24,58.07,35.3,58.07,35.3z"/>
		</g>
	</g>
</g>
</svg>
