<?xml version="1.0" encoding="utf-8"?>
<!-- Generator: Adobe Illustrator 25.4.1, SVG Export Plug-In . SVG Version: 6.00 Build 0)  -->
<svg version="1.1" id="OBJECTS" xmlns="http://www.w3.org/2000/svg" xmlns:xlink="http://www.w3.org/1999/xlink" x="0px" y="0px"
	 viewBox="0 0 4048.3 4048.3" style="enable-background:new 0 0 4048.3 4048.3;" xml:space="preserve">
<path d="M3836,2368.7c0-73.7-21.7-144.2-62.1-204c100.2-65.3,166.6-178.3,166.6-306.6c0-97.5-38-189.3-107-258.4
	c-0.1-0.1-0.1-0.1-0.2-0.2c-69.1-69-160.9-107-258.4-107h-986.2c19.5-100.6,29.6-208.7,29.6-319c0-221.3-40.6-431-114.4-590.6
	c-86.3-186.7-211.2-289.5-351.7-289.5c-66.6,0-165.9,24.3-260.5,140.3c-35.2,43.2-54.6,97.4-54.6,152.7v403.3c0,27.1-9,54-25.4,75.6
	l-357,471l-228.5,301.6c-49.4-54.4-120.7-88.7-199.9-88.7H377.1c-148.9,0-270,121.1-270,270v1633.8c0,148.9,121.1,270,270,270h649.4
	c112.6,0,209.4-69.3,249.8-167.6h1974.3c201.6,0,365.6-164,365.6-365.6c0-73.3-21.7-141.6-58.9-198.9
	c104.7-64.4,174.6-180,174.6-311.7c0-75.5-23-145.7-62.3-204C3769.6,2610,3836,2497,3836,2368.7z M1075.8,3652.9
	c0,27.2-22.1,49.3-49.3,49.3H377.1c-27.2,0-49.3-22.1-49.3-49.3V2019.2c0-27.2,22.1-49.3,49.3-49.3h649.4
	c27.2,0,49.3,22.1,49.3,49.3v94.3v1531.6V3652.9z M3575,2003.2h-103.7c-60.9,0-110.2,49.3-110.3,110.1
	c-0.1,60.9,49.1,110.3,110,110.5c79.6,0.3,144.4,65.3,144.4,144.9c0,79.9-65,144.9-144.9,144.9h-104.2
	c-60.9,0-110.3,49.4-110.3,110.3c0,60.9,49.4,110.3,110.3,110.3c79.9,0,144.9,65,144.9,144.9c0,79.9-65,144.9-144.9,144.9h-115.7
	c-60.9,0-110.3,49.4-110.3,110.3c0,60.9,49.4,110.3,110.3,110.3c79.9,0,144.9,65,144.9,144.9c0,79.9-65,144.9-144.9,144.9H1296.4
	v-1419c0-0.8,0-1.5,0-2.3v-2.9l334.2-441l357-471c45.3-59.7,70.2-133.9,70.2-208.9V586.5c0-4.6,1.8-9.3,5-13.2
	c18-22.1,53.6-59.1,89.5-59.1c47.4,0,105.4,61.9,151.4,161.4c59.7,129.3,94,310.8,94,498c0,142.9-19.2,280-55.4,396.6
	c-10.4,33.5-4.3,69.9,16.5,98.2c20.8,28.2,53.8,44.9,88.8,44.9H3575c38.6,0,75,15.1,102.5,42.4c27.4,27.5,42.4,63.9,42.4,102.5
	C3719.9,1938.1,3654.9,2003.2,3575,2003.2z"/>
</svg>
