<?xml version="1.0" encoding="utf-8"?>
<!-- Generator: Adobe Illustrator 25.4.1, SVG Export Plug-In . SVG Version: 6.00 Build 0)  -->
<svg version="1.1" id="Vrstva_1" xmlns="http://www.w3.org/2000/svg" xmlns:xlink="http://www.w3.org/1999/xlink" x="0px" y="0px"
	 viewBox="0 0 566.9 566.9" style="enable-background:new 0 0 566.9 566.9;" xml:space="preserve">
<g>
	<path d="M78.6,462c-4.3,2.3-5.9,7.6-3.7,12c2.3,4.3,7.6,5.9,11.9,3.7c3.8-2,24.7-6.3,45-9.5
		c17.3-2.8,33.3-4.8,36.3-3.9l80.9,23.8c41.8,17.3,76.9-4.3,82.3-7.9l210.1-110.8l-4.1-7.8l4.1,7.8c0.4-0.2,0.7-0.4,1-0.6
		c27.3-15.9,29.9-27.9,17-37.8c-8.2-6.3-26.1-9.4-48.2-11.9l0,0c-0.5-0.1-1-0.1-1.5,0c-16.8-0.1-52.8,17.7-84.5,33.3
		c-21.6,10.6-41.1,20.3-48.7,21.7l-25.8,4.9c-3.7,0.7-4.9-0.6-6.9-2.8c-2.7-3-6.1-6.8-12.3-10.8c-21.8-14.2-46.7-12.9-70.2-11.7
		c-1.7,0.1-3.4,0.2-5,0.2c-6.2,0.3-12.7,0.5-19.6,0.5c-6.6,0-13-0.2-19.3-0.6c-9.1-0.7-17.7-6.6-26.5-12.8c-2.3-1.6-4.6-3.2-6.5-4.4
		c-37.8-24.9-53.4-16.7-80.6-2.2c-7.2,3.8-15.2,8.1-24.5,12c-4.5,1.9-6.6,7.1-4.7,11.5c1.9,4.5,7.1,6.6,11.5,4.7
		c10.4-4.4,18.6-8.8,25.9-12.6c21.3-11.3,33.6-17.8,62.6,1.3c2.4,1.6,4.3,2.9,6.2,4.2c10.8,7.5,21.4,14.8,35.3,15.9
		c6.9,0.5,13.7,0.7,20.5,0.7c6.4,0,13.3-0.2,20.4-0.5c1.7-0.1,3.4-0.2,5-0.3c20.8-1.1,42.7-2.2,59.8,8.9c4.1,2.7,6.7,5.5,8.7,7.8
		c6.1,6.7,9.8,10.9,23.2,8.3l25.8-4.9c10-1.9,30.6-12,53.3-23.2c30.1-14.9,64.3-31.7,76.5-31.5c19.2,2.2,34.3,4.5,39.1,8.2
		c0,0-4.2,2.4-15.1,8.7c-0.1,0.1-0.3,0.1-0.4,0.2l0,0L323.4,464.3c-0.5,0.2-1,0.5-1.5,0.9l0,0c-0.3,0.2-29.8,21.4-66,6.5
		c-0.4-0.2-0.9-0.4-1.3-0.5l-2.5,8.5l2.5-8.5l-81.4-23.9c-5.6-1.7-24.6,0.3-44,3.4C107.3,454.2,83.9,459.2,78.6,462z"/>
	<path d="M353.3,388.4c-0.2-4.9-4.4-8.6-9.3-8.4s-8.6,4.4-8.4,9.3c1.3,24.7-16.4,33.1-38.1,34.3
		c-25.3,1.4-55.9-6-73.8-10.7c-4.7-1.3-9.6,1.5-10.8,6.3c-1.3,4.7,1.5,9.6,6.3,10.8c18.9,5.1,51.4,12.9,79.3,11.3
		C329.9,439.5,355.4,426.7,353.3,388.4z"/>
	<path d="M91.6,322v168.5c0,4.9-4,8.8-8.8,8.8h-74c-4.9,0-8.8-4-8.8-8.8V322c0-4.9,4-8.8,8.8-8.8h73.9
		C87.6,313.1,91.6,317.1,91.6,322L91.6,322z M73.9,481.6V330.8H17.7v150.8L73.9,481.6L73.9,481.6z"/>
	<path fill="none" stroke-width="15" d="M391.2,329.7c-1.2,11.1-11.5,19.4-22.6,18.2l-91.3-9.8c-11.1-1.2-19.4-11.5-18.2-22.6L283.6,87
		c1.2-11.1,11.5-19.4,22.6-18.2l91.7,9.8c11.1,1.2,19.4,11.5,18.2,22.6L391.2,329.7L391.2,329.7z"/>
	<g>
		<path d="M383.7,88.9c-0.5,4.8-4.2,8.4-8.1,8l-51.9-5.6c-3.9-0.4-6.7-4.7-6.2-9.5l0.7-6.1c0.5-4.8,4.2-8.4,8.1-8
			l51.9,5.6c3.9,0.4,6.7,4.7,6.2,9.5L383.7,88.9z"/>
	</g>
</g>
</svg>
