<?xml version="1.0" encoding="utf-8"?>
<!-- Generator: Adobe Illustrator 25.4.1, SVG Export Plug-In . SVG Version: 6.00 Build 0)  -->
<svg version="1.1" id="Vrstva_1" xmlns="http://www.w3.org/2000/svg" xmlns:xlink="http://www.w3.org/1999/xlink" x="0px" y="0px"
	 viewBox="0 0 850.4 850.4" style="enable-background:new 0 0 850.4 850.4;" xml:space="preserve">
<g>
	<path d="M846.3,609H505.9c-2,0-4.1,2-4.1,4.1v1.4c0,7.5-5.4,12.9-12.9,12.9H360.1c-6.8,0-12.9-5.4-12.9-12.9v-1.4
		c0-2-2-4.1-4.1-4.1H4.1c-2,0-4.1,2-4.1,4.1v3.4c0,3.4,1.4,6.8,4.7,8.8l8.1,5.4c17,11.5,36.6,17.6,57,17.6h710.7
		c20.3,0,40-6.1,57-17.6l8.1-5.4c2.7-2,4.7-5.4,4.7-8.8v-3.4C849.7,610.4,848.4,609,846.3,609z"/>
	<path d="M496.4,612.4H353.3c-0.7,0-1.4,0.7-1.4,1.4c-0.7,5.4,3.4,10.2,8.8,10.2h128.8c5.4,0,9.5-4.7,8.8-10.2
		C498.4,613.1,497.8,612.4,496.4,612.4z"/>
	<path d="M749.4,163.5h-649c-12.9,0-23.1,10.2-23.1,23.1V586c0,12.9,10.2,23.1,23.1,23.1h649
		c12.9,0,23.1-10.2,23.1-23.1V186.6C772.4,173.7,762.2,163.5,749.4,163.5z M425.2,177.1c2.7,0,4.7,2,4.7,4.7c0,2.7-2,4.7-4.7,4.7
		c-2.7,0-4.7-2-4.7-4.7C420.4,179.1,422.5,177.1,425.2,177.1z M753.4,573.8H96.3V200.1h656.4v373.7H753.4z"/>
</g>
</svg>
