<?xml version="1.0" encoding="utf-8"?>
<!-- Generator: Adobe Illustrator 25.4.1, SVG Export Plug-In . SVG Version: 6.00 Build 0)  -->
<svg version="1.1" id="Vrstva_1" xmlns="http://www.w3.org/2000/svg" xmlns:xlink="http://www.w3.org/1999/xlink" x="0px" y="0px"
	 viewBox="0 0 510.2 510.2" style="enable-background:new 0 0 510.2 510.2;" xml:space="preserve">
<g>
	<path stroke-width="5" d="M451.2,425.4L389.6,314c32.4-34,49.7-78.2,49.7-124.8c0-48.2-19-94.1-52.9-128.8c-33.9-34.1-79.7-53-128.7-53
		c-48.2,0-94.1,19-128.8,52.9c-34,34-52.9,79.8-52.9,128.8c0,48.2,18.2,93.3,52.2,127.3L64.1,431.7c-3.2,4.7-2.3,11,1.5,15
		c3.2,3.2,7.9,4.7,12.7,3.2l62.4-15.8l20.5,60.1c0.8,4.7,4.7,7.9,9.5,8.7c0.8,0,1.5,0,2.3,0c4.7,0,8.7-2.3,11-7.1l73.4-125.6h0.8
		c1.5,0,2.3,0,4,0l70.5,119.9c2.3,4,7.1,7.1,11,7.1c0.8,0,1.5,0,2.3,0c4.7-0.8,7.9-4,9.5-8.7l20.5-60.1l62.4,15.8
		c4.7,1.5,9.5,0,12.7-3.2C453.7,436.4,454.4,430.1,451.2,425.4z M175.5,467.3l-16.5-49c-0.8-3.2-3.2-5.5-5.5-7.9
		c-3.2-1.5-6.3-1.5-9.5-0.8L93.4,423l51.4-92.4c25.3,20.5,56.1,33.2,88.5,37.9L175.5,467.3z M144.7,301.3c-30-30-46.6-70.4-46.6-113
		s16.5-82.9,46.6-113c30-30,70.4-46.6,113-46.6s82.9,16.5,113,46.6s46.6,70.4,46.6,113s-16.5,82.9-46.6,113s-70.4,46.6-113,46.6
		S175.5,331.3,144.7,301.3z M373,404.8c-3.2-0.8-6.3-0.8-9.5,0.8c-3.2,1.5-4.7,4-5.5,7.9l-16.5,49l-55.4-94.1
		c32.4-4.7,62.4-18.2,87.7-39.5l49,88.5L373,404.8z"/>
	<polygon stroke-width="5" points="278.2,167 258.5,102.9 238,167 173.9,167 226.1,206.5 206.3,271.2 258.5,231 309.9,271.2 290.1,206.5 
		342.3,167 	"/>
</g>
</svg>
