<?xml version="1.0" standalone="no"?>
<!DOCTYPE svg PUBLIC "-//W3C//DTD SVG 20010904//EN"
 "http://www.w3.org/TR/2001/REC-SVG-20010904/DTD/svg10.dtd">
<svg version="1.0" xmlns="http://www.w3.org/2000/svg"
 width="250.000000pt" height="250.000000pt" viewBox="0 0 250.000000 250.000000"
 preserveAspectRatio="xMidYMid meet">
<metadata>
Created by potrace 1.14, written by Peter Selinger 2001-2017
</metadata>
<g transform="translate(0.000000,250.000000) scale(0.100000,-0.100000)"
fill="#000000" stroke="none">
<path d="M1492 2463 c-60 -29 -87 -74 -168 -282 -44 -110 -82 -201 -86 -201
-3 0 -15 28 -27 61 -26 79 -63 126 -115 150 -74 34 -120 26 -402 -65 -142 -46
-317 -103 -387 -125 -147 -46 -176 -64 -214 -128 -44 -76 -38 -120 55 -408 44
-137 124 -387 177 -555 248 -784 236 -751 280 -795 40 -40 97 -65 150 -65 47
0 792 241 845 273 25 16 52 22 95 23 71 0 127 24 159 68 35 47 618 1512 624
1567 6 61 -11 108 -53 151 -28 28 -105 62 -424 191 -413 167 -440 174 -509
140z m238 -293 c575 -232 635 -257 632 -271 -5 -21 -485 -1223 -491 -1231 -6
-7 -888 346 -904 361 -6 6 451 1171 484 1233 9 17 12 17 47 2 20 -8 125 -51
232 -94z m-675 -66 c51 -24 66 -47 101 -156 l33 -100 -194 -487 c-207 -516
-214 -538 -181 -614 27 -64 63 -84 382 -213 170 -69 315 -128 321 -131 26 -10
-1 -23 -145 -69 -81 -25 -244 -77 -362 -116 -232 -75 -280 -81 -333 -42 -38
28 -50 57 -128 304 -39 124 -104 329 -144 455 -40 127 -111 353 -159 503 -91
289 -99 335 -66 389 34 56 101 86 108 48 6 -30 32 -55 58 -55 30 0 572 176
591 192 11 9 14 25 10 55 -2 23 -2 45 1 48 11 11 75 4 107 -11z m350 -1348
c43 -43 45 -101 5 -144 -61 -65 -170 -20 -170 70 0 85 107 132 165 74z"/>
<path d="M1163 362 c-140 -45 -173 -59 -173 -74 0 -10 6 -18 13 -17 6 0 89 26
182 57 113 38 170 62 170 71 0 8 -4 15 -10 17 -5 1 -88 -23 -182 -54z"/>
</g>
</svg>
