<?xml version="1.0" encoding="utf-8"?>
<!-- Generator: Adobe Illustrator 25.4.1, SVG Export Plug-In . SVG Version: 6.00 Build 0)  -->
<svg version="1.1" id="Vrstva_1" xmlns="http://www.w3.org/2000/svg" xmlns:xlink="http://www.w3.org/1999/xlink" x="0px" y="0px"
	 viewBox="0 0 350 80" style="enable-background:new 0 0 350 80;" xml:space="preserve">
<style type="text/css">
	.st0{fill:#050606;}
	.st1{fill:#DDC088;}
	.st2{fill:#020203;}
	.st3{fill:#FFFFFF;}
	.st4{fill:#FAFAFA;}
</style>
<g id="Layer_1">
	<g>
		<g>
			<path class="st0" d="M115.9,52h-6.1V33.8h6.1c5.7,0,9.7,3.9,9.7,9.1v0.1C125.5,48,121.6,52,115.9,52z M124.1,42.9
				c0-4.3-3.2-7.9-8.3-7.9h-4.7v15.7h4.7C120.9,50.8,124.1,47.3,124.1,42.9L124.1,42.9z"/>
			<path class="st0" d="M135.7,52.3c-3.9,0-6.8-3.2-6.8-6.9v-0.1c0-3.7,2.9-6.9,6.8-6.9c3.9,0,6.8,3.2,6.8,6.9v0.1
				C142.6,49.1,139.7,52.3,135.7,52.3z M141.2,45.4c0-3.2-2.4-5.8-5.5-5.8c-3.1,0-5.4,2.6-5.4,5.7v0.1c0,3.2,2.4,5.8,5.5,5.8
				C138.9,51.1,141.2,48.6,141.2,45.4L141.2,45.4z"/>
			<path class="st0" d="M150.8,52.3c-1.9,0-4-0.8-5.4-1.9l0.8-1c1.5,1.1,3.1,1.7,4.8,1.7c1.8,0,3.2-1,3.2-2.5v-0.1
				c0-1.6-1.7-2.1-3.5-2.7c-2.2-0.6-4.6-1.3-4.6-3.6v-0.1c0-2.1,1.8-3.7,4.4-3.7c1.6,0,3.4,0.6,4.7,1.5l-0.7,1.1
				c-1.2-0.8-2.7-1.3-4.1-1.3c-1.8,0-3,1-3,2.3v0.1c0,1.5,1.8,2,3.7,2.6c2.1,0.6,4.4,1.4,4.4,3.7v0.1
				C155.4,50.8,153.3,52.3,150.8,52.3z"/>
			<path class="st0" d="M163.6,52.3c-2.1,0-3.7-1.1-3.7-3.6v-8.7h-1.9v-1.2h1.9v-4.2h1.3v4.2h4.7v1.2h-4.7v8.6
				c0,1.9,1.1,2.6,2.7,2.6c0.7,0,1.2-0.1,2-0.5v1.2C165.1,52.1,164.4,52.3,163.6,52.3z"/>
			<path class="st0" d="M179.4,52v-2.5c-0.9,1.6-2.4,2.8-4.8,2.8c-3.4,0-5.3-2.3-5.3-5.5v-8.1h1.3v7.9c0,2.7,1.5,4.5,4.2,4.5
				c2.6,0,4.6-2,4.6-4.7v-7.7h1.3V52L179.4,52L179.4,52z"/>
			<path class="st0" d="M192.3,52.3c-2.7,0-4.4-1.5-5.5-3.2v7h-1.3V38.8h1.3v3c1.1-1.7,2.8-3.3,5.5-3.3c3.2,0,6.5,2.6,6.5,6.9v0.1
				C198.7,49.7,195.5,52.3,192.3,52.3z M197.3,45.4c0-3.5-2.4-5.7-5.2-5.7c-2.8,0-5.4,2.3-5.4,5.7v0.1c0,3.4,2.7,5.7,5.4,5.7
				C195,51.1,197.3,49,197.3,45.4L197.3,45.4z"/>
			<path class="st0" d="M212.8,52v-7.9c0-2.7-1.5-4.5-4.2-4.5c-2.6,0-4.6,2-4.6,4.7V52h-1.3V38.8h1.3v2.5c0.9-1.6,2.4-2.8,4.8-2.8
				c3.4,0,5.3,2.3,5.3,5.5V52L212.8,52L212.8,52z"/>
			<path class="st0" d="M224.3,52.5c-1.2,2.8-2.5,3.8-4.4,3.8c-1,0-1.7-0.2-2.6-0.6l0.4-1.1c0.7,0.3,1.3,0.5,2.3,0.5
				c1.4,0,2.3-0.8,3.3-3.1l-6.4-13.2h1.5l5.5,11.9l4.8-11.9h1.4L224.3,52.5z"/>
			<path class="st1" d="M235.6,35.9c0,0.8-0.5,1.4-1.5,1.4c-0.8,0-1.4-0.6-1.4-1.4c0-0.8,0.6-1.4,1.4-1.4
				C235,34.5,235.6,35.1,235.6,35.9z M233,52V39.4h2.3V52H233z"/>
			<path class="st1" d="M239.2,34.7c1.1-0.2,2.5-0.3,4.3-0.3c2.2,0,3.9,0.5,4.9,1.5c1,0.8,1.5,2.1,1.5,3.7c0,1.6-0.5,2.8-1.4,3.7
				c-1.2,1.3-3.1,1.9-5.4,1.9c-0.7,0-1.3,0-1.8-0.2v7h-2.3V34.7z M241.5,43.2c0.5,0.1,1.1,0.2,1.9,0.2c2.7,0,4.4-1.3,4.4-3.7
				c0-2.3-1.6-3.4-4.1-3.4c-1,0-1.7,0.1-2.1,0.2V43.2z"/>
			<path class="st1" d="M252.8,33.6h2.3v7.9h0.1c0.4-0.7,0.9-1.2,1.6-1.6c0.7-0.4,1.5-0.7,2.3-0.7c1.7,0,4.4,1,4.4,5.4V52h-2.3v-7.2
				c0-2-0.8-3.7-2.9-3.7c-1.5,0-2.7,1-3.1,2.3c-0.1,0.3-0.2,0.7-0.2,1.1V52h-2.3L252.8,33.6L252.8,33.6z"/>
			<path class="st1" d="M278.7,45.6c0,4.7-3.2,6.7-6.3,6.7c-3.4,0-6-2.5-6-6.5c0-4.2,2.8-6.7,6.2-6.7
				C276.2,39.1,278.7,41.8,278.7,45.6z M268.7,45.8c0,2.8,1.6,4.8,3.8,4.8c2.2,0,3.8-2.1,3.8-4.9c0-2.1-1.1-4.8-3.8-4.8
				C269.9,40.9,268.7,43.4,268.7,45.8z"/>
			<path class="st1" d="M281.6,42.8c0-1.3,0-2.4-0.1-3.4h2l0.1,2.1h0.1c0.6-1.2,2.1-2.4,4.2-2.4c1.7,0,4.4,1,4.4,5.4V52H290v-7.3
				c0-2-0.8-3.7-2.9-3.7c-1.5,0-2.7,1.1-3.1,2.3c-0.1,0.3-0.2,0.7-0.2,1.1V52h-2.3L281.6,42.8L281.6,42.8z"/>
			<path class="st1" d="M297.3,46.1c0.1,3.1,2,4.4,4.3,4.4c1.6,0,2.6-0.3,3.5-0.7l0.4,1.6c-0.8,0.4-2.2,0.8-4.2,0.8
				c-3.9,0-6.2-2.5-6.2-6.3s2.2-6.8,5.9-6.8c4.1,0,5.2,3.6,5.2,5.9c0,0.5-0.1,0.8-0.1,1.1H297.3z M304,44.5c0-1.5-0.6-3.7-3.2-3.7
				c-2.3,0-3.3,2.1-3.5,3.7H304z"/>
			<path class="st2" d="M309.3,52v-2.2h1.7V52H309.3z"/>
			<path class="st2" d="M320.9,52.3c-3.8,0-6.8-3.2-6.8-6.9v-0.1c0-3.7,3-6.9,6.8-6.9c2.5,0,4.1,1.1,5.3,2.4l-0.9,0.9
				c-1.1-1.2-2.4-2.2-4.4-2.2c-3,0-5.4,2.5-5.4,5.7v0.1c0,3.2,2.4,5.8,5.5,5.8c1.9,0,3.3-1,4.4-2.2l0.9,0.8
				C324.9,51.2,323.3,52.3,320.9,52.3z"/>
			<path class="st2" d="M329,52v-0.7l9.6-11.4h-9.2v-1.1h11.1v0.7l-9.6,11.4h9.6V52H329z"/>
		</g>
		<path class="st1" d="M55.8,2c-0.3,0.5-0.6,1-0.8,1.5l-4,10l-0.1-0.3c-1.1-3.4-4.2-5.6-7.7-5.6c-0.8,0-1.7,0.1-2.4,0.4l-20,6.4
			c7.2-7.9,17.5-12.8,29-12.8C51.8,1.5,53.8,1.7,55.8,2z"/>
		<path class="st3" d="M79.9,12.4L68.3,7.8c-0.3-0.1-0.4-0.4-0.3-0.7l0.1-0.3c0.1-0.3,0.4-0.4,0.7-0.3l11.6,4.7
			c0.3,0.1,0.4,0.4,0.3,0.7l-0.1,0.3C80.5,12.4,80.2,12.5,79.9,12.4z"/>
		<path class="st1" d="M26.2,72.1C16.7,65,10.5,53.6,10.5,40.8c0-4.2,0.6-8.2,1.9-11.9L26.2,72.1z"/>
		<path class="st3" d="M60.8,71l-22.7,7.2c-3.4-1.1-6.6-2.5-9.5-4.4L13.4,26c1.3-3.3,3.1-6.3,5.2-9.1l22.7-7.2
			c0.6-0.2,1.3-0.3,1.9-0.3c1.3,0,2.6,0.4,3.7,1.2c1.1,0.8,1.9,1.9,2.3,3.2l15.7,49.3c0.2,0.6,0.3,1.3,0.3,1.9
			c0,1.3-0.4,2.6-1.2,3.7C63.2,69.8,62.1,70.6,60.8,71z"/>
		<path class="st3" d="M86.8,27.9l-15.3,38c-0.4,1.1-1.2,2-2.1,2.6c-0.9,0.6-2,1-3.1,1c-0.4,0-0.8,0-1.1-0.1
			c0.8-1.2,1.3-2.7,1.3-4.3c0-0.8-0.1-1.5-0.4-2.3L51.5,17l5.1-12.8c0.3-0.7,0.7-1.3,1.2-1.8C71.4,5.2,82.4,15,86.8,27.9z"/>
		<path class="st1" d="M89,40.8C89,62.4,71.4,80,49.7,80c-2.9,0-5.7-0.3-8.4-0.9l20-6.4c1.2-0.4,2.2-1,3.1-1.8
			c0.6,0.2,1.3,0.2,1.9,0.2c3.1,0,5.8-1.8,6.9-4.7l14.4-35.9C88.5,33.8,89,37.2,89,40.8z"/>
		<g>
			<path class="st2" d="M61,71.6l-24,7.7c-0.7,0.2-1.4,0.3-2.1,0.3c-2.9,0-5.7-1.9-6.6-4.8L12.5,25.5c-1.2-3.6,0.9-7.5,4.5-8.7
				l24-7.7c0.7-0.2,1.4-0.3,2.1-0.3h0c2.9,0,5.7,1.9,6.6,4.8l15.7,49.3C66.6,66.6,64.6,70.5,61,71.6z"/>
		</g>
		<path class="st4" d="M59.4,69l-22.7,7.2c-2.6,0.8-5.4-0.6-6.2-3.2L15.4,25.5c-0.8-2.6,0.6-5.4,3.2-6.2l22.7-7.2
			c2.6-0.8,5.4,0.6,6.2,3.2l15.1,47.5C63.5,65.4,62,68.2,59.4,69z"/>
		<g>
			<path class="st2" d="M91.4,18.2L72.1,66.1c-1,2.5-3.4,4-5.9,4c-0.8,0-1.6-0.1-2.3-0.5l-23.7-9.5c-3.2-1.3-4.8-5-3.5-8.2L56,4
				c1-2.5,3.4-4,5.9-4c0.8,0,1.6,0.1,2.3,0.5L87.9,10C91.1,11.3,92.7,15,91.4,18.2z"/>
		</g>
		<circle class="st3" cx="54.2" cy="58.9" r="3.3"/>
		
			<rect x="42.8" y="16.9" transform="matrix(0.3733 -0.9277 0.9277 0.3733 9.9541 80.9277)" class="st4" width="44.2" height="32.4"/>
		<path class="st2" d="M54.5,68.8l-11.2,3.6c-0.3,0.1-0.5-0.1-0.6-0.3l-0.1-0.2c-0.1-0.3,0.1-0.5,0.3-0.6l11.2-3.6
			c0.3-0.1,0.5,0.1,0.6,0.3l0.1,0.2C54.9,68.5,54.7,68.7,54.5,68.8z"/>
		<path class="st2" d="M40.3,15.8L22,21.7c-0.9,0.3-1.9-0.2-2.1-1.1l-0.3-0.9c-0.3-0.9,0.2-1.9,1.1-2.1L39,11.7
			c0.9-0.3,1.9,0.2,2.1,1.1l0.3,0.9C41.7,14.6,41.2,15.6,40.3,15.8z"/>
	</g>
</g>
</svg>
